<?xml version="1.0" encoding="UTF-8"?>
<svg id="Capa_1" data-name="Capa 1" xmlns="http://www.w3.org/2000/svg" viewBox="0 0 579.92 579.46">
  <defs>
    <style>
      .cls-1 {
        fill: #c1a868;
      }
    </style>
  </defs>
  <path class="cls-1" d="M130.71,532l-.04.04,1.01.62-.97-.66ZM125.87,528.77l.97.68.04-.04-1.01-.64ZM287.86,7.04c3.75,0,7.23.06,10.56.21,6.69.27,12.89.73,18.95,1.31,3.5.33,6.79.68,9.53.87.56.06,1.35.15,1.86.21,3.54.46,5.12.7,6.03.83l-5.74,29.29-1.74-.33c-.25-.04-.54-.04-.85-.1-2.73-.33-8.1-1.01-13.47-1.66l.31-5.26c.15.04.31.04.54.04,1.88.23,5.55.68,7.4.89.7.06,1.12.17,1.43.12.31.02.5-.04.64-.29l.04-.06s.04-.04.06-.06l3.5-18.56c-.27-.06-.72-.14-1.39-.23-1.95-.25-5.84-.73-10.48-1.16-4.62-.43-9.99-.75-13.61-.95-3.62-.17-5.49-.21-6.84-.21-.7,0-.95,0-1.35.02v.02h-.35v.02h-.02v.04h-.08v43.83s.08.02.14.02v.1c1.62.04,3.79.1,6.46.23,3.42.17,7.35.41,12.26.89,4.89.48,10.79,1.22,14.83,1.74.29.04.27.04.54.06,1.84.27,3.87.6,5.78.93,2.53.44,4.66.87,8.22,1.74.73.17,1.66.41,2.49.6.41.1.39.1.85.21,3.92,1.06,9.65,2.65,14.36,4.08,4.72,1.43,8.43,2.69,11.66,3.87,2.51.91,4.54,1.66,6.05,2.24l.04-.04s.08.04.1.04l.06-.14s.06.04.1.04l16.78-40.5c-.1-.04-.25-.1-.35-.15-.1-.04-.21-.06-.29-.12-.17-.06-.29-.12-.62-.25-.12-.04-.15-.06-.35-.15-1.26-.5-2.98-1.2-6.4-2.42-3.4-1.22-8.49-2.94-12.93-4.33-4.43-1.39-8.24-2.42-10.13-2.94-.23-.04-.29-.04-.46-.1h-.04c-.23-.04-.44-.1-.62-.15-.08-.04-.23-.04-.29-.04v.02l-.02.04s-.04-.02-.06-.04l-3.87,18.48s.04.1.06.15v.04c.06.25.19.39.46.5.27.14.68.23,1.3.41,1.8.5,5.37,1.51,7.19,2.01.27.06.41.12.58.17l-1.72,4.97c-5.2-1.43-10.4-2.88-13.03-3.6-.31-.06-.58-.17-.83-.23l-1.78-.37,5.9-29.25c.89.23,2.44.6,5.82,1.51,3.77,1.02,9.65,2.67,15.93,4.7,6.26,2.03,12.89,4.41,16.68,5.8,1.59.58,2.44.91,3.19,1.2l.04-.04s.08.04.1.04l.02-.04,2.44,1.01-.06.04c.06.02.08.04.12.04l-.02.04c.73.33,1.57.72,3.09,1.41,3.65,1.68,10.03,4.7,15.91,7.69,5.86,3,11.17,5.99,14.58,7.93,1.6.93,2.76,1.6,3.62,2.11.75.44,1.18.72,1.57.93l-16.51,24.86-1.49-.97c-.23-.12-.46-.25-.75-.41-2.4-1.35-7.1-4.02-11.81-6.71l2.3-4.72c.15.06.31.17.56.31,1.64.93,4.87,2.75,6.52,3.65.81.46,1.2.75,1.57.68.12,0,.23-.04.33-.1l.04-.04c.06-.02.08-.04.1-.04l10.34-15.81c-.23-.17-.6-.41-1.2-.75-1.7-.99-5.12-2.92-9.24-5.08-4.12-2.17-8.93-4.52-12.2-6.07-3.27-1.55-4.99-2.3-6.23-2.82-.66-.27-.89-.37-1.26-.5v.02c-.1-.04-.23-.1-.35-.14v.02h-.02l-.04.04s-.04-.04-.06-.04l-16.78,40.46s.06.04.1.04l-.06.1s.08.04.1.04l-.02.04c1.49.66,3.46,1.55,5.88,2.69,1.93.91,4.06,1.95,6.4,3.13.97.48,1.99,1.02,3.05,1.59.5.27.99.52,1.51.79,4.35,2.32,9.51,5.24,13.03,7.27,2.53,1.47,3.5,2.05,4.62,2.71.41.25.72.44,1.16.73.27.17.5.33.75.48.64.43,1.26.83,1.86,1.24.48.33.95.66,1.55,1.06.27.17.62.43.93.64,1.04.77,1.93,1.43,4.21,3.19,3.23,2.47,7.91,6.13,11.72,9.26,3.81,3.11,6.75,5.72,9.3,8.02,1.97,1.8,3.56,3.29,4.74,4.41l.02-.04.06.04.06-.04.02.02.04-.04.02-.02.02.02,30.99-30.99c-.29-.29-.44-.46-.95-.97-.04-.04-.06-.04-.08-.04t-.12-.12c-.97-.95-2.3-2.26-4.99-4.68-2.69-2.42-6.71-5.97-10.28-8.95-3.58-2.98-6.67-5.37-8.24-6.59-.54-.43-.91-.7-1.16-.83l-.1.15h-.02l-10.65,15.6c-.06.27.04.46.27.68.19.23.54.46,1.02.85,1.47,1.16,4.39,3.44,5.88,4.62.25.19.39.31.54.44l-3.52,3.94c-4.27-3.34-8.55-6.67-10.71-8.35-.25-.19-.46-.37-.68-.54l-1.59-1.08,16.66-24.8c.73.54,2.03,1.49,4.85,3.67,3.09,2.38,7.89,6.15,12.91,10.42,5.03,4.27,10.23,9.01,13.18,11.73,1.24,1.14,1.89,1.76,2.49,2.32l.04-.04s.06.04.06.04l.06-.04,1.88,1.88-.06.04s.06.04.08.06c.56.58,1.18,1.26,2.32,2.49,2.05,2.22,5.22,5.7,8.49,9.43.95,1.08,1.89,2.18,2.84,3.29.12.14.23.27.35.39,4.27,5.03,8.04,9.82,10.42,12.91,2.22,2.88,3.19,4.21,3.73,4.93l-24.8,16.66-1.08-1.59c-.17-.19-.33-.43-.54-.68-1.68-2.17-5.01-6.44-8.35-10.71l3.94-3.52c.12.14.21.27.37.46,1.16,1.49,3.46,4.39,4.62,5.88.25.33.44.56.6.75.21.25.41.48.6.54.12.04.23.06.37.04l.08-.04.06-.04h.02l15.6-10.65c-.14-.25-.41-.6-.83-1.14-1.2-1.55-3.62-4.66-6.59-8.24-2.98-3.58-6.53-7.6-8.95-10.28-2.42-2.69-3.73-4.02-4.68-4.99-.1-.06-.1-.1-.17-.17l-.02-.02c-.41-.41-.56-.56-.77-.75-.04-.04-.14-.14-.19-.17l-30.99,30.99.04.04-.12.12s.06.04.08.06h-.02c1.12,1.18,2.59,2.75,4.41,4.74,1.26,1.39,2.63,2.92,4.1,4.62,1.14,1.31,2.32,2.73,3.62,4.31.1.12.19.23.31.37,1.55,1.88,3.21,3.96,4.79,5.99q.06.04.08.06c1.59,2.01,3.09,3.96,4.31,5.55,1.91,2.49,2.71,3.56,3.48,4.58.7,1.01,1.41,2.07,1.93,2.84.56.85.91,1.37,1.47,2.24.06.1.15.23.23.35.66,1.1,1.39,2.32,3.02,5.14,2.03,3.54,4.95,8.7,7.29,13.03,2.32,4.35,4.06,7.87,5.51,10.96,1.14,2.42,2.03,4.39,2.69,5.88l.06-.04s.04.06.06.06l.12-.04v.02l.04-.02v.02l40.5-16.78c-.15-.37-.23-.6-.5-1.26-.02-.04-.06-.04-.06-.06q-.04-.06-.06-.15c-.52-1.24-1.26-2.98-2.82-6.24-1.55-3.27-3.92-8.08-6.09-12.2-2.17-4.12-4.12-7.52-5.08-9.24-.35-.6-.56-.99-.75-1.2l-.06.04s-.02,0-.02-.02l-.06.04-15.81,10.34c-.06.06-.08.17-.1.25-.21.41.12.79.62,1.72.91,1.62,2.73,4.85,3.65,6.5.15.27.23.43.33.6l-4.74,2.3c-2.67-4.72-5.34-9.42-6.69-11.81-.15-.29-.29-.52-.43-.75l-1.04-1.6,24.86-16.51c.46.77,1.31,2.17,3.07,5.26,1.95,3.38,4.93,8.7,7.95,14.58,3,5.86,6.01,12.24,7.69,15.89.72,1.53,1.08,2.36,1.41,3.09l.06-.04s.04.06.06.06l.04-.02,1.04,2.51.02.04-.08.04c.29.75.62,1.6,1.2,3.19,1.39,3.79,3.79,10.42,5.8,16.68,2.03,6.26,3.67,12.14,4.7,15.91.93,3.4,1.31,4.97,1.53,5.86l-29.29,5.92-.39-1.88c-.08-.25-.15-.5-.23-.83-.73-2.65-2.17-7.85-3.62-13.09l4.99-1.72c.06.19.12.39.21.7.5,1.82,1.51,5.39,2.01,7.19.25.89.31,1.39.64,1.59.08.06.17.14.31.15l18.5-3.87v-.02l.06-.02.06-.02v-.02h.06c-.06-.29-.15-.72-.33-1.37-.52-1.89-1.55-5.68-2.94-10.13-1.37-4.43-3.11-9.51-4.33-12.93-1.22-3.4-1.89-5.14-2.42-6.4-.06-.12-.06-.14-.1-.23v-.04c-.21-.52-.31-.73-.43-1.01-.06-.04-.08-.17-.1-.25l-40.48,16.78v.02h-.04v.02l-.06.04s.06.04.06.06l-.06.02s.02.02.02.04h-.02s0,.02.02.04h-.02v.02l-.08.04c.58,1.53,1.33,3.54,2.24,6.05,1.16,3.23,2.44,6.94,3.87,11.66,1.43,4.72,3.02,10.44,4.08,14.36.85,3.13,1.2,4.5,1.51,5.76.23,1.08.46,2.22.64,3.04.19,1.01.31,1.62.48,2.63.06.19.08.44.12.68.17,1.28.37,2.55.77,5.66.52,4.04,1.26,9.94,1.74,14.83.48,4.91.73,8.82.89,12.24.14,2.67.19,4.83.23,6.46h.1v.04h.06v.06h.06v.02h43.85v-.31c0-.41.02-.64.02-1.35,0-1.35-.04-3.23-.21-6.84-.19-3.62-.52-8.97-.95-13.61-.43-4.62-.91-8.53-1.16-10.48-.1-.7-.15-1.12-.23-1.39l-.06.02-18.56,3.5s-.06.04-.1.1l-.06.02s-.1.06-.15.12c-.12.14-.14.33-.14.56,0,.29.08.7.14,1.26.23,1.86.68,5.53.89,7.4.04.29.04.46.06.66l-5.26.31c-.68-5.37-1.33-10.75-1.66-13.47-.06-.33-.08-.6-.1-.85l-.35-1.86,29.31-5.74c.14.91.39,2.49.83,6.03.5,3.87,1.22,9.94,1.76,16.49.52,6.57.87,13.61,1.02,17.63.06,1.68.1,2.59.12,3.4h.1v2.78h-.1v.04c-.04.79-.06,1.68-.12,3.33-.15,4.02-.5,11.08-1.02,17.63-.52,6.57-1.26,12.62-1.76,16.49-.12.93-.19,1.41-.29,2.11-.17,1.22-.35,2.51-.43,3.09-.06.25-.08.58-.12.77,0,.02-.02.04-.02.04l-29.31-5.74.35-1.84c.04-.25.06-.54.1-.87.33-2.73,1.01-8.08,1.66-13.47l5.26.31c-.04.17-.06.37-.06.66-.23,1.88-.68,5.55-.89,7.42-.08.64-.15,1.06-.14,1.37.02.25.06.44.27.56l.06.04s.06.06.1.1l18.56,3.5.06.02c.08-.27.14-.72.23-1.39.25-1.95.75-5.84,1.16-10.48.43-4.62.75-9.99.95-13.61.19-3.62.21-5.49.21-6.84,0-.7-.02-.95-.02-1.35h-.02v-.29h-43.85v.02h-.04v.06h-.06v.02h-.1v.06c-.04,1.62-.12,3.79-.23,6.46-.08,1.68-.17,3.5-.33,5.49v.08c-.14,2.01-.33,4.18-.56,6.59-.48,4.89-1.22,10.79-1.74,14.83-.41,3.07-.58,4.33-.77,5.61-.06.25-.1.52-.14.73-.19,1.01-.29,1.64-.48,2.63-.15.81-.41,1.93-.62,3-.31,1.24-.66,2.63-1.51,5.78-1.06,3.92-2.65,9.65-4.08,14.36-1.43,4.72-2.69,8.43-3.87,11.66-.91,2.51-1.66,4.54-2.24,6.05l.1.04-.02.04.02.02s-.02.04-.04.04l.04.02s-.06.04-.06.06l.06.04v.02l.06.02s-.02.04-.02.04l40.5,16.78c.06-.06.08-.17.1-.25.12-.27.21-.48.43-1.01v-.04q.04-.1.1-.23c.52-1.26,1.2-3,2.42-6.4,1.22-3.4,2.96-8.49,4.33-12.93,1.39-4.43,2.42-8.22,2.94-10.13.17-.68.29-1.08.33-1.37l-.04-.02-.04-.02-.06-.02v-.04l-18.5-3.83c-.14.04-.23.06-.31.15-.31.19-.39.7-.64,1.59-.5,1.8-1.51,5.37-2.01,7.19-.1.31-.15.5-.21.7l-4.99-1.72c1.45-5.22,2.88-10.44,3.62-13.07.1-.31.15-.58.23-.83l.39-1.88,29.27,5.92c-.1.43-.23.95-.46,1.82-.04.06-.04.1-.04.17-.25.95-.56,2.17-1.02,3.87-1.02,3.77-2.67,9.65-4.7,15.91-2.03,6.26-4.41,12.91-5.8,16.68-.58,1.59-.91,2.44-1.2,3.19l.08.04s0,.04-.02.04l-1.04,2.51-.04-.02s-.04.06-.04.06l-.06-.04c-.33.73-.7,1.57-1.41,3.09-1.68,3.65-4.7,10.03-7.69,15.89-3,5.86-5.99,11.17-7.95,14.58-1.78,3.09-2.61,4.49-3.07,5.26l-24.88-16.51,1.04-1.6c.12-.23.25-.46.43-.75,1.35-2.4,4.02-7.1,6.69-11.81l4.74,2.3c-.1.17-.17.33-.33.6-.93,1.64-2.75,4.87-3.65,6.52-.25.46-.46.79-.58,1.06-.04.06-.06.15-.06.21-.02.04-.04.1-.04.15,0,.1.02.19.06.29.02.06.04.17.1.25l15.81,10.34.06.04.04.04c.17-.23.41-.6.75-1.2.99-1.7,2.92-5.12,5.08-9.24,2.17-4.12,4.52-8.93,6.09-12.2,1.55-3.27,2.3-4.99,2.82-6.24q.04-.06.06-.15s.06-.04.06-.06c.27-.66.35-.89.5-1.26l-40.5-16.76v.02l-.14-.04s-.06.06-.06.06l-.04-.04c-.66,1.49-1.55,3.46-2.69,5.88-1.47,3.11-3.19,6.63-5.51,10.98-2.32,4.35-5.26,9.51-7.29,13.03-1.66,2.88-2.44,4.16-3.07,5.26-.06.06-.12.17-.15.25-.56.87-.89,1.39-1.45,2.24-.48.73-1.18,1.72-1.82,2.67-.77,1.02-1.6,2.17-3.6,4.74-1.22,1.59-2.73,3.54-4.31,5.55-.04.04-.06.04-.08.06-1.59,2.03-3.27,4.12-4.79,5.99-.1.14-.19.25-.31.37-1.3,1.59-2.49,2.98-3.62,4.29l-.02.02c-1.47,1.7-2.82,3.23-4.1,4.62-1.8,1.97-3.29,3.56-4.41,4.74l.02.02s-.06.04-.08.06l.14.12s-.04.04-.04.04l30.99,30.99c.06-.04.14-.14.19-.17.21-.19.39-.37.77-.75l.02-.02c.08-.06.1-.06.17-.17.95-.97,2.26-2.3,4.68-4.99,2.42-2.69,5.97-6.73,8.95-10.28,2.98-3.58,5.37-6.67,6.59-8.24.43-.54.7-.89.83-1.14l-.14-.06-15.6-10.65c-.14-.04-.25-.02-.37.04h-.02c-.19.04-.39.27-.6.54-.17.19-.35.43-.6.75-1.16,1.47-3.44,4.39-4.62,5.88-.17.21-.27.35-.39.48l-3.94-3.5c3.34-4.27,6.67-8.55,8.35-10.71.19-.25.37-.48.54-.68l1.08-1.59,24.78,16.66c-.21.29-.56.77-.99,1.33-.08.1-.1.14-.19.25t-.06.04c-.6.79-1.37,1.82-2.49,3.27-2.38,3.09-6.15,7.89-10.42,12.91-.12.14-.23.27-.35.39-.12.15-.25.29-.37.43-.81.95-1.64,1.91-2.46,2.86-1.45,1.66-2.86,3.23-4.18,4.7-1.14,1.26-2.11,2.32-3.02,3.33-.41.44-.95,1.04-1.3,1.41-1.14,1.24-1.76,1.89-2.32,2.49-.04.04-.06.04-.08.06l.06.04-1.88,1.88-.04-.04-.06.04-.04-.04c-.58.56-1.26,1.18-2.49,2.32-2.96,2.73-8.18,7.48-13.18,11.75-5.03,4.27-9.82,8.04-12.91,10.42-2.82,2.18-4.12,3.13-4.85,3.67l-16.66-24.78,1.59-1.08c.19-.17.43-.33.68-.54,2.17-1.68,6.42-5.01,10.71-8.35l3.5,3.92c-.15.12-.29.25-.54.44-1.49,1.16-4.41,3.46-5.88,4.62-.48.39-.81.62-1.02.85l-.02.02c-.12.1-.19.21-.23.31-.04.04-.04.1-.04.17,0,.04,0,.12.04.17l10.65,15.6.12.15c.25-.14.6-.41,1.14-.83,1.55-1.2,4.66-3.62,8.24-6.59,3.58-2.98,7.6-6.52,10.28-8.95,2.69-2.42,4.04-3.73,4.99-4.68q.06-.04.12-.12s.06-.04.08-.04c.5-.5.68-.68.95-.97l-30.99-30.99s-.02,0-.02.02h-.02l-.06-.04-.08-.06s-.06.04-.06.04l-.02-.04c-1.18,1.12-2.75,2.61-4.74,4.41-2.53,2.32-5.49,4.91-9.3,8.02-3.81,3.11-8.49,6.77-11.72,9.26-2.44,1.88-3.42,2.61-4.47,3.38-.23.15-.48.33-.68.46-.6.41-1.04.72-1.53,1.06-.6.41-1.22.81-1.86,1.24-.25.17-.48.31-.75.48-.31.19-.52.33-.79.5-1.1.66-2.24,1.33-4.97,2.9-3.54,2.03-8.7,4.95-13.03,7.27-.48.25-.93.48-1.39.73-.06.04-.08.04-.12.04-1.06.56-2.09,1.08-3.05,1.59h-.02c-2.34,1.2-4.47,2.22-6.4,3.13-2.42,1.14-4.39,2.03-5.88,2.69l.02.04s-.08.04-.12.04l.06.1s-.08.04-.1.04l16.78,40.5s.04-.02.06-.04l.04.04h.02v.02c.37-.15.6-.25,1.26-.5.62-.25,1.35-.58,2.36-1.02t.04-.02s.06-.04.1-.04c.02,0,.04-.02.04-.02.7-.31,1.68-.77,2.67-1.24.17-.06.29-.14.46-.21.33-.15.46-.21.83-.39.04-.02.06-.04.06-.04l.06-.04c1.6-.77,3.6-1.74,5.68-2.76,2.17-1.06,4.43-2.22,6.52-3.31,4.12-2.17,7.52-4.12,9.24-5.08.6-.35.99-.56,1.2-.75l-10.34-15.81s-.08-.04-.1-.04l-.06-.04c-.12-.06-.21-.1-.33-.1-.37-.06-.75.21-1.57.68-1.62.91-4.85,2.73-6.5,3.65-.25.14-.41.21-.58.31l-2.3-4.72c4.72-2.67,9.43-5.34,11.81-6.69.29-.17.52-.29.75-.41l1.49-.97,16.51,24.86c-.37.23-.81.48-1.57.95-.85.5-2.01,1.18-3.62,2.11-3.38,1.95-8.7,4.93-14.58,7.93-5.86,3-12.24,6.01-15.89,7.69-1.53.72-2.36,1.08-3.09,1.41l.02.04s-.08.04-.12.04l.06.04-2.44,1.01-.02-.04s-.08.04-.1.04l-.04-.04c-.75.29-1.6.62-3.19,1.2-3.79,1.39-10.42,3.77-16.68,5.8-6.26,2.03-12.14,3.67-15.91,4.7-3.38.91-4.93,1.3-5.82,1.51l-5.9-29.23,1.78-.37c.25-.06.52-.15.83-.25,2.63-.73,7.83-2.17,13.03-3.6l1.72,4.95c-.17.04-.33.1-.58.17-1.82.5-5.39,1.51-7.19,2.01-.62.17-1.02.27-1.3.41-.29.1-.44.25-.48.5v.04s-.06.06-.06.15l3.87,18.48s.04-.02.06-.02l.02.04v.02c.06-.02.21-.04.27-.04.17-.04.37-.06.62-.15.17-.04.25-.04.48-.12,1.89-.52,5.68-1.55,10.13-2.94,4.43-1.39,9.51-3.11,12.93-4.33,3.4-1.22,5.16-1.89,6.4-2.42.66-.27.87-.37,1.24-.52v-.02c.06-.04.17-.06.25-.1v-.02s.08-.04.1-.04l-16.78-40.5s-.06.04-.1.04l-.06-.14s-.08.04-.1.04l-.04-.04c-1.53.58-3.54,1.35-6.07,2.24-3.23,1.16-6.94,2.44-11.66,3.87-4.72,1.43-10.42,3.02-14.36,4.08-.95.25-.99.25-1.74.46-.52.12-1.12.27-1.6.39-3.56.87-5.68,1.3-8.22,1.74-1.47.25-3.04.5-4.52.73-.77.1-.81.12-1.78.25-4.04.52-9.92,1.26-14.83,1.74-4.89.48-8.82.73-12.24.89-2.67.12-4.83.19-6.46.23v.1c-.06,0-.1,0-.14.02v43.85h.08v.06h.02v.02h.27c.29,0,.52.02,1.08.02h.29c1.35,0,3.23-.04,6.84-.21,3.62-.17,8.97-.52,13.61-.95,4.62-.43,8.53-.91,10.48-1.16.14-.04.17-.04.29-.04h.04c.43-.04.75-.1.99-.17.04,0,.08-.02.1-.04.04,0,.06-.02.08-.04l-3.5-18.56s-.04-.04-.06-.06l-.04-.06c-.14-.23-.35-.29-.64-.27-.31-.04-.73.04-1.43.12-1.86.23-5.53.66-7.42.89-.25.04-.39.04-.54.04l-.31-5.26c5.36-.66,10.69-1.31,13.4-1.66.33-.04.6-.06.87-.1l1.82-.35,5.74,29.29c-.91.14-2.49.39-6.03.83-3.87.5-9.94,1.22-16.49,1.76-6.57.52-13.61.87-17.63,1.02-1.68.04-2.59.1-3.4.12v.06h-2.65v-.04h-.21v-.04c-.81-.04-1.72-.04-3.4-.12-4.02-.17-11.08-.48-17.63-1.02-6.57-.52-12.62-1.26-16.49-1.76-1.74-.23-3-.41-3.94-.54-.02,0-.06,0-.06-.02-.89-.12-1.45-.21-1.88-.27l5.74-29.31,1.82.35c.25.04.54.04.85.1,2.71.33,8.04.99,13.4,1.66l-.31,5.26c-.19-.04-.39-.04-.7-.06-1.88-.23-5.55-.66-7.4-.89-1.08-.14-1.57-.29-1.86.12-.06.04-.1.06-.15.14l-3.5,18.56s.06.02.08.02v.08h.02c.27.06.72.14,1.39.23,1.95.25,5.84.75,10.48,1.16,4.62.43,9.99.75,13.61.95,3.62.17,5.49.21,6.84.21h.27c.72,0,.97,0,1.35-.02v-.04h.08v-43.85h-.08v-.15c-.06,0-.15,0-.19-.02v-.04c-1.62-.04-3.79-.1-6.46-.23-3.42-.17-7.35-.41-12.24-.89-4.76-.46-10.38-1.16-14.4-1.68-1.28-.19-2.63-.41-3.71-.58-.83-.12-1.37-.23-2.07-.35-.5-.06-.97-.17-1.47-.27-1.64-.31-3.25-.64-4.87-.97-1.68-.39-3.34-.79-4.97-1.18-.52-.14-.5-.12-1.1-.29-3.92-1.06-9.65-2.65-14.36-4.08-4.72-1.43-8.43-2.69-11.66-3.85-2.51-.91-4.54-1.66-6.05-2.26l-.04.1c-.06-.04-.08-.04-.1-.04l-.04.04s-.02,0-.02-.02l-16.78,40.5s.06.04.06.04l-.02.04c.37.15.6.25,1.26.52,1.26.5,3,1.2,6.4,2.42,1.78.64,4,1.39,6.36,2.18,2.17.73,4.43,1.47,6.57,2.15.12.04.23.06.35.1,4.43,1.39,8.24,2.42,10.13,2.94.68.17,1.1.29,1.39.33l3.87-18.48v-.04l.02-.04c-.02-.06-.06-.14-.08-.17t-.06-.06c-.06-.15-.15-.25-.31-.33-.25-.19-.72-.29-1.45-.5-1.8-.5-5.37-1.51-7.19-2.01-.23-.04-.35-.1-.5-.15l1.72-4.97c5.22,1.45,10.44,2.88,13.09,3.62.31.06.58.17.83.25l1.7.35-3.81,18.85-2.11,10.4c-.89-.21-2.46-.6-5.9-1.55-3.77-1.02-9.65-2.67-15.91-4.7-6.26-2.03-12.91-4.41-16.68-5.8-1.59-.58-2.44-.91-3.19-1.2l-.04.06-2.51-1.04.04-.04s-.1-.04-.12-.04l.02-.04c-.73-.33-1.57-.72-3.09-1.41-3.65-1.68-10.03-4.7-15.91-7.69-5.86-3-11.17-5.99-14.58-7.95-2.94-1.68-4.29-2.49-5.08-2.98l16.51-24.86,1.53.99c.23.12.48.25.75.43,2.38,1.35,7.06,4,11.75,6.67l-2.3,4.74c-.17-.1-.35-.19-.64-.35-1.64-.93-4.87-2.75-6.5-3.65-.97-.54-1.35-.89-1.78-.58l-.02.02c-.06.04-.1.04-.14.06l-.04.04-10.3,15.76-.04.04s.04.04.06.04l-.02.02c.06.04.23.14.29.17,0,0,.02,0,.04.02.08.04.17.1.27.17.19.12.31.19.62.39,1.7.99,5.12,2.92,9.24,5.08,4.12,2.17,8.93,4.52,12.2,6.09,3.27,1.55,4.99,2.3,6.23,2.82.66.27.89.37,1.26.5l.04-.04c.12.04.23.1.35.14l16.78-40.5.04-.04s-.1-.04-.14-.04l.02-.02h-.04l.04-.06s-.1-.04-.12-.04l.02-.04c-1.49-.66-3.46-1.55-5.88-2.69-3.11-1.47-6.63-3.19-10.96-5.51-4.35-2.32-9.51-5.24-13.03-7.27-.39-.21-.35-.21-.7-.41-.31-.17-.62-.37-.91-.56-1.35-.85-2.75-1.72-4.25-2.71-1.7-1.12-3.38-2.24-5.03-3.33-1.18-.85-2.3-1.66-3.4-2.47-.25-.19-.31-.23-.68-.5-3.23-2.47-7.91-6.13-11.72-9.26-.25-.19-.44-.39-.68-.58-1.3-1.08-2.49-2.09-3.62-3.05t-.04-.04c-1.84-1.59-3.48-3.04-4.97-4.39-1.97-1.8-3.56-3.29-4.74-4.41l-.06.04-.04-.04-.02.04s-.04-.04-.06-.04v.02s-.08-.06-.12-.1l-.06.04s0-.02-.02-.02l-31.01,30.99s.06.04.08.06c.27.29.46.46.95.97.44.44,1.02,1.01,1.76,1.7.06.04.15.15.21.19.7.64,1.47,1.37,2.49,2.3.19.17.29.27.5.46.12.1.14.14.25.23,2.69,2.42,6.71,5.97,10.28,8.95,3.58,2.98,6.69,5.37,8.24,6.59.54.43.89.7,1.14.83l10.65-15.6v-.04l.04-.04s0-.04.02-.06l.02-.04s0-.04.02-.06c.02-.04.02-.06.02-.1v-.02c.02-.14-.06-.27-.14-.39-.04-.04-.06-.04-.06-.06-.04-.04-.08-.06-.14-.14-.21-.19-.52-.43-.93-.75-1.47-1.16-4.39-3.44-5.88-4.62-.23-.17-.37-.31-.52-.43l3.52-3.94c4.27,3.34,8.55,6.67,10.71,8.35.25.19.46.37.68.54l1.45.99-14.29,21.27-2.38,3.54c-.17-.12-.48-.37-.73-.56,0,0-.02-.02-.04-.02-.54-.41-1.57-1.18-2.75-2.07-.08-.04-.15-.12-.23-.17-.31-.23-.56-.43-1.01-.77-3.09-2.38-7.89-6.15-12.91-10.42-2.51-2.13-5.07-4.39-7.37-6.46-2.3-2.07-4.35-3.92-5.82-5.3-1.22-1.12-1.88-1.74-2.46-2.28-.02-.02-.04-.04-.04-.04l-.06.04s-.06-.04-.06-.04l-.04-.04h-.02l-1.88-1.88.06-.04s-.06-.04-.06-.04l.06-.04c-.56-.58-1.18-1.26-2.32-2.49-2.73-2.96-7.48-8.18-11.75-13.2-4.27-5.03-8.04-9.82-10.42-12.91-1.08-1.41-1.88-2.46-2.46-3.21v-.02c-.58-.77-.95-1.28-1.22-1.64l24.77-16.65.99,1.45c.17.19.35.41.54.68,1.68,2.17,5.01,6.42,8.35,10.71l-3.94,3.5c-.1-.12-.19-.23-.33-.41-1.16-1.49-3.46-4.41-4.62-5.88-.43-.54-.68-.91-.93-1.08-.04-.04-.06-.04-.08-.04-.04-.02-.06-.04-.08-.04-.06-.04-.14-.06-.19-.06-.14-.06-.27-.14-.44-.1l-15.6,10.65s0,.02.02.02l-.06.04c.14.25.41.6.83,1.16,1.2,1.55,3.62,4.66,6.59,8.24,2.98,3.58,6.52,7.6,8.95,10.29,2.42,2.69,3.73,4.02,4.68,4.99t.06.04c.43.43.64.62.89.89l.06.04.02-.02c.08.06.17.17.25.23l.04-.04,30.99-30.99s-.04-.04-.06-.04l.06-.04s-.04-.04-.04-.04l.04-.04c-1.12-1.18-2.61-2.75-4.41-4.74-2.3-2.53-4.91-5.49-8.02-9.3-3.11-3.81-6.77-8.49-9.26-11.7l-.04-.04c-.7-.95-1.43-1.95-2.01-2.76-.48-.68-.81-1.14-1.22-1.7-.29-.43-.56-.79-.85-1.24-.95-1.39-1.86-2.75-2.76-4.12-1.26-1.99-2.63-4.23-3.67-5.97-.99-1.72-2.15-3.75-3.31-5.84-.41-.72-.77-1.39-1.16-2.13-.33-.6-.68-1.22-1.01-1.84-.44-.83-.93-1.68-1.35-2.47-.06-.06-.08-.14-.12-.19-.02-.04-.04-.04-.04-.04-.95-1.78-1.78-3.38-2.55-4.93-.02-.02-.02-.04-.04-.04-.33-.66-.64-1.3-.97-1.91-.54-1.1-1.06-2.17-1.53-3.17-.1-.21-.23-.46-.33-.68-.66-1.39-1.04-2.28-1.53-3.36-.37-.79-.85-1.86-1.14-2.49,0-.02,0-.04-.02-.04h-.02s-.04-.04-.04-.06c-.02-.04-.06-.04-.06-.04l-.12.04s-.04-.06-.04-.1l-40.39,16.9c.04.06.1.21.12.29h-.02c.15.37.23.6.5,1.26.52,1.24,1.26,2.98,2.82,6.24,1.55,3.27,3.91,8.08,6.07,12.2,2.17,4.12,4.12,7.52,5.08,9.22.35.6.56.99.73,1.2l.04-.04.06.06,15.81-10.34s.02-.04.04-.04l.04-.02c.06-.06.08-.14.08-.21.06-.06.06-.17.06-.27,0-.04-.04-.06-.06-.1-.06-.25-.27-.6-.52-1.06-.06-.06-.08-.12-.14-.21,0,0-.02-.04-.04-.04-.04-.04-.06-.1-.08-.15-.93-1.66-2.65-4.74-3.56-6.34l-.04-.04c-.08-.12-.12-.19-.15-.29s-.12-.21-.17-.31l4.78-2.32c2.65,4.68,5.32,9.34,6.65,11.72.15.29.29.52.41.75l1.02,1.57-24.92,16.55s-.04-.04-.04-.06c-.44-.75-1.3-2.15-2.86-4.85-.06-.1-.04-.06-.1-.17,0-.02,0-.04-.02-.04-.17-.31-.44-.81-.64-1.14-.75-1.33-1.6-2.82-2.55-4.56-.79-1.41-1.6-2.92-2.49-4.58,0-.02-.02-.04-.04-.04-.73-1.37-1.47-2.78-2.22-4.25-3-5.86-6.01-12.26-7.69-15.91-.72-1.53-1.08-2.36-1.41-3.09h.04s-.02-.04-.02-.04l-.02.02s-.04-.04-.04-.06c-.02-.04-.04-.04-.04-.04l-.06.04-.99-2.4.06-.04s-.04-.04-.06-.04l.06-.04c-.29-.75-.62-1.6-1.2-3.19-1.39-3.79-3.79-10.42-5.8-16.68-2.03-6.26-3.67-12.14-4.7-15.91-.48-1.78-.81-3.07-1.06-4.02-.23-.89-.37-1.45-.46-1.88l29.27-5.92.37,1.74c.08.25.15.5.25.83.73,2.65,2.17,7.87,3.62,13.09l-4.99,1.74c-.04-.15-.1-.29-.15-.52-.5-1.82-1.51-5.39-2.01-7.19-.14-.48-.23-.83-.33-1.08-.04-.04-.04-.15-.08-.19-.02-.04-.04-.04-.04-.04,0,0,0-.02-.02-.04-.12-.29-.25-.44-.5-.48l-.04.02s-.08-.04-.12-.04l-18.48,3.87c.04.29.14.72.33,1.37.52,1.89,1.55,5.68,2.94,10.13,1.39,4.43,3.11,9.51,4.33,12.93,1.22,3.4,1.89,5.14,2.42,6.4.04.04.04.06.04.12.04.04.06.12.06.17.27.66.37.89.52,1.26l.06-.04s.04.06.04.1l40.5-16.78s-.02-.04-.04-.04l.06-.04s-.04-.04-.04-.04l.04-.04c-.58-1.53-1.35-3.54-2.26-6.05-1.16-3.23-2.44-6.94-3.87-11.66-1.43-4.72-3.02-10.44-4.06-14.36-.14-.48-.12-.46-.23-.89v-.02c-.44-1.88-.89-3.81-1.33-5.97-.5-2.4-.99-4.87-1.43-7.11-.17-1.22-.25-1.74-.52-3.85-.52-4.04-1.26-9.92-1.74-14.83-.23-2.3-.39-4.33-.54-6.24v-.04c-.12-1.66-.21-3.17-.27-4.62,0-.04,0-.12-.02-.17-.04-.37-.06-.79-.06-1.16-.14-2.67-.19-4.83-.23-6.46h-.04v-.04h-.04v-.04h-.08v-.04h-.06v-.04H12.1v.48c0,.41-.02.66-.02,1.35,0,1.35.04,3.21.21,6.82.19,3.62.52,8.97.95,13.61.43,4.62.91,8.53,1.16,10.48.1.7.15,1.12.23,1.41l18.56-3.52s.06-.04.1-.06l.06-.02c.08-.04.12-.1.17-.17.06-.06.1-.17.12-.27.04-.06.04-.17.04-.27.04-.31-.06-.72-.14-1.33-.23-1.86-.66-5.53-.89-7.42-.04-.25-.04-.39-.06-.56l5.24-.31c.66,5.37,1.33,10.75,1.66,13.47.04.33.06.6.1.85l.33,1.68-29.27,5.82v-.04c-.14-.91-.37-2.47-.81-5.94-.5-3.87-1.22-9.94-1.76-16.49-.52-6.57-.87-13.61-1.02-17.63-.06-1.68-.1-2.59-.12-3.4h-.04v-.04h-.06v-.04h-.04v-2.59h.04v-.04h.06v-.04h.02v-.06c.04-.81.06-1.72.12-3.4.08-1.7.17-4.14.31-6.65.1-1.91.21-3.92.35-6.03.12-1.62.23-3.27.35-4.87v-.02c.52-6.57,1.26-12.62,1.76-16.49.44-3.46.7-5.03.83-5.95l29.29,5.74-.31,1.66c-.06.25-.06.54-.1.85-.33,2.73-1.01,8.1-1.66,13.47l-5.26-.31c.04-.17.04-.35.06-.64.21-1.86.66-5.43.87-7.31,0-.04.02-.06.04-.1.06-.29.06-.48.1-.7.04-.37.06-.68-.04-.87-.02-.04-.04-.06-.06-.1t-.06-.06s-.1-.12-.17-.17l-.04-.02s-.06-.04-.1-.06l-18.56-3.52c-.08.27-.14.72-.23,1.39-.25,1.95-.73,5.86-1.16,10.48-.43,4.62-.77,9.99-.95,13.61-.19,3.62-.21,5.49-.21,6.82v.06c0,.12,0,.29-.02.41,0,.7.02.97.02,1.35h43.83v-.04h.06v-.04h.08v-.04h.04v-.1h.02c.06-1.62.12-3.79.23-6.46.1-1.89.21-3.98.39-6.24.14-1.78.29-3.65.48-5.76v-.04s.02-.06.02-.14v-.12c.23-2.42.54-5.1.85-7.66.31-2.59.62-5.07.89-7.1.27-2.01.33-2.49.5-3.67v-.04c.46-2.3.97-4.81,1.47-7.27.46-2.26.93-4.27,1.39-6.21.1-.33.08-.29.17-.66,1.06-3.92,2.65-9.65,4.06-14.36,1.43-4.72,2.69-8.43,3.87-11.66.91-2.51,1.68-4.52,2.26-6.05h-.02s.02-.04.02-.04l-.04-.02s.02-.04.04-.04l-.08-.04s.04-.04.04-.06l-40.5-16.82s-.04.06-.06.12l-.04-.04s-.04.1-.06.14c-.04.04-.06.1-.06.14h-.02c-.15.37-.25.6-.52,1.26-.5,1.26-1.2,2.98-2.42,6.4-1.22,3.4-2.94,8.49-4.33,12.93-1.39,4.43-2.42,8.24-2.94,10.13-.17.68-.29,1.08-.33,1.37l18.48,3.87s.08-.04.12-.04l.06.02c.14-.04.23-.06.33-.17.1-.06.17-.19.23-.35.06-.06.1-.27.14-.39.08-.23.15-.52.25-.89.5-1.8,1.51-5.37,2.01-7.19.08-.25.12-.41.17-.56l4.99,1.74c-1.45,5.22-2.88,10.44-3.62,13.09-.1.31-.17.58-.25.83l-.37,1.72-29.23-5.86c.1-.41.25-1.01.46-1.82.25-.95.58-2.26,1.06-4.04,1.02-3.77,2.67-9.65,4.7-15.91,2.03-6.26,4.41-12.89,5.8-16.68.58-1.59.91-2.44,1.2-3.19h-.02s.02-.04.02-.04l-.04-.02s.02-.04.04-.04l-.06-.04.99-2.42.06.04s.04-.04.04-.04h.04s.04-.06.04-.06l.02.02c.33-.73.7-1.57,1.41-3.09,1.68-3.65,4.7-10.03,7.69-15.91,3-5.86,5.99-11.17,7.95-14.56.83-1.43,1.39-2.42,1.88-3.23.06-.06.15-.25.19-.35q.06-.04.06-.06c.41-.68.68-1.12.89-1.47l24.92,16.55-1.02,1.57c-.12.23-.25.46-.41.75-1.33,2.36-3.98,7.02-6.63,11.7l-4.79-2.32c.1-.17.17-.33.33-.6.93-1.64,2.75-4.87,3.65-6.52.06-.1.08-.15.14-.25.1-.15.17-.31.25-.44.14-.23.25-.48.27-.64,0-.04.02-.04.02-.04.02-.06.04-.15,0-.21,0-.04.02-.04,0-.06-.02-.06-.04-.15-.1-.23l-.06-.04s-.02-.04-.04-.06l-15.81-10.34s-.04.06-.06.1l-.04-.02c-.17.23-.41.6-.73,1.2-.99,1.7-2.94,5.12-5.08,9.22-2.17,4.12-4.52,8.93-6.07,12.2-1.55,3.27-2.3,4.99-2.82,6.24t-.04.06s-.06.15-.1.21c-.27.66-.37.89-.5,1.26l40.5,16.78s.04-.04.04-.1l.12.04s.04-.04.04-.04l.04.02s.06-.06.06-.06h.02c.66-1.49,1.55-3.46,2.69-5.88.6-1.26,1.26-2.65,1.97-4.06.33-.68.66-1.35,1.02-2.07.58-1.14,1.22-2.36,1.89-3.63.21-.41.41-.79.64-1.2,2.18-4.06,4.83-8.76,6.82-12.24,1.04-1.74,2.4-3.98,3.67-5.97.93-1.37,1.84-2.73,2.76-4.12.29-.44.56-.81.85-1.24.41-.56.72-1.04,1.22-1.7.64-.87,1.43-1.95,2.17-2.98.02-.02.02-.04.04-.04,2.47-3.21,6.03-7.75,9.09-11.48,3.11-3.81,5.72-6.75,8.02-9.3,1.8-1.97,3.29-3.56,4.41-4.74l-.02-.02s.04-.04.06-.04l-.04-.04.04-.04-.12.02.04-.04-30.99-30.99-.04-.04c-.08.06-.17.17-.25.25-.04.04-.06.04-.06.04l-.04-.02c-.29.27-.46.44-.97.95-.95.97-2.26,2.3-4.68,4.99-2.42,2.69-5.97,6.73-8.95,10.28-2.98,3.58-5.37,6.67-6.59,8.24-.43.54-.7.89-.83,1.16l.06.04v.02l15.6,10.65c.15.04.27-.02.41-.06.43.02.66-.44,1.3-1.22,1.16-1.47,3.44-4.39,4.62-5.88.15-.19.27-.33.37-.44l3.92,3.48c-3.34,4.27-6.65,8.55-8.35,10.71-.19.25-.39.46-.54.68l-.99,1.45-24.77-16.65c.15-.19.43-.56.64-.85.31-.43,1.02-1.35,1.62-2.15.44-.58.77-1.02,1.39-1.82,2.38-3.09,6.15-7.89,10.42-12.91,4.27-5.03,9.01-10.23,11.75-13.18,1.14-1.24,1.76-1.89,2.32-2.49l-.02-.02s.04-.04.04-.04l-.04-.04s.04-.04.04-.04l-.04-.04,1.95-1.95.06.04c.58-.56,1.26-1.18,2.49-2.32,2.96-2.73,8.18-7.48,13.18-11.75,5.03-4.27,9.82-8.04,12.91-10.42,2.73-2.11,4-3.04,4.74-3.6l16.66,24.78-1.45.99c-.19.17-.41.35-.68.54-2.17,1.68-6.44,5.01-10.71,8.35l-3.5-3.94c.14-.12.29-.23.52-.43,1.49-1.16,4.41-3.46,5.88-4.62.62-.48,1.01-.75,1.16-1.04.06-.06.1-.17.1-.29.02-.04,0-.12-.02-.19l-.04-.04s0-.04-.02-.06l-.04-.04v-.04l-10.65-15.6c-.25.14-.6.41-1.16.83-1.55,1.2-4.66,3.62-8.24,6.59-3.58,2.98-7.6,6.53-10.28,8.95-1.51,1.37-2.53,2.32-3.36,3.11-.83.77-1.45,1.39-1.93,1.88-.5.5-.68.68-.95.97l30.99,30.99.02-.02.06.04s.06-.04.1-.1h.02s.04-.04.06-.04l.02-.02.02.04s.02-.02.04-.04l.06.04c1.18-1.12,2.75-2.59,4.74-4.41,2.53-2.3,5.49-4.91,9.3-8.02,3.81-3.11,8.49-6.77,11.7-9.26.37-.27.43-.31.66-.5,0,0,.02,0,.04-.02.02-.02.04-.02.04-.04,1.1-.81,2.2-1.62,3.38-2.46,1.64-1.08,3.33-2.2,5.03-3.33,1.51-.99,2.9-1.88,4.25-2.71.52-.31,1.06-.66,1.62-.99t.1-.04c3.5-2.01,8.6-4.91,12.93-7.21t.02-.02c4.33-2.32,7.85-4.04,10.96-5.51,2.42-1.14,4.39-2.03,5.88-2.69v-.02c.06-.02.08-.04.12-.04l-.04-.06h.02l-.02-.04s.04-.02.04-.02l-.02-.04c.06-.04.12-.04.14-.04l-.04-.04-16.78-40.54c-.1.04-.23.1-.35.14l-.02-.02c-.37.15-.6.23-1.26.5-1.24.52-2.96,1.26-6.23,2.82-1.64.77-3.69,1.78-5.84,2.84-2.11,1.04-4.33,2.17-6.36,3.23-.04.02-.06.04-.06.04-4.12,2.17-7.52,4.12-9.24,5.08-.6.35-.99.56-1.2.75l.04.04,10.3,15.76.04.04c.06.04.1.04.14.06l.02.02c.23.17.48.1.81-.04.27-.12.6-.33,1.08-.6,1.62-.91,4.85-2.73,6.52-3.65.23-.12.37-.19.52-.27l2.3,4.76c-4.7,2.67-9.38,5.32-11.75,6.67-.02.02-.06.04-.06.04-.29.17-.52.29-.75.43l-1.47.95-16.53-24.86c.29-.17.73-.43,1.22-.73.25-.15.81-.48,1.18-.68.77-.44,1.57-.93,2.8-1.62,3.38-1.95,8.7-4.93,14.58-7.95,1.47-.75,2.96-1.51,4.45-2.22,1.43-.72,2.86-1.39,4.21-2.05,2.78-1.33,5.3-2.51,7.11-3.36,1.53-.7,2.36-1.08,3.09-1.41.04-.02.1-.04.12-.04l-.04-.06h.02v-.02l2.51-1.04.06.06c.75-.29,1.6-.62,3.19-1.2,3.79-1.39,10.42-3.77,16.68-5.8,6.26-2.03,12.14-3.67,15.91-4.7,3.44-.93,5.01-1.31,5.9-1.53l5.9,29.25-1.7.35c-.25.06-.52.15-.83.25-2.65.73-7.87,2.17-13.09,3.62l-1.72-5.05c.15-.04.27-.06.5-.15,1.82-.5,5.39-1.51,7.19-2.01.56-.15.95-.25,1.22-.37.29-.1.48-.23.54-.46.06-.04.12-.15.14-.25l-.02-.04v-.02l-3.87-18.48c-.29.04-.72.14-1.39.33-1.89.52-5.68,1.55-10.13,2.94-4.43,1.39-9.51,3.13-12.93,4.33-1.95.7-3.27,1.2-4.35,1.6-.81.31-1.51.6-2.05.81t-.04.02c-.1.04-.25.1-.33.14-.66.27-.89.37-1.26.52v.02s-.04.04-.06.04l16.78,40.5s.02-.02.04-.02l.06.04s.06-.04.12-.04l.04.1c1.53-.58,3.54-1.35,6.05-2.26,3.23-1.16,6.94-2.44,11.66-3.87,4.7-1.43,10.4-3,14.33-4.06.02,0,.04-.02.06-.02,1.86-.46,4.02-.99,6.07-1.45,1.62-.31,3.23-.64,4.87-.95.52-.1.99-.17,1.47-.27.7-.12,1.24-.21,2.07-.35,1.31-.19,2.94-.46,4.5-.7,3.96-.5,9.12-1.14,13.61-1.59,4.89-.48,8.82-.73,12.24-.91,2.67-.12,4.83-.19,6.46-.23v-.04c.06,0,.15-.02.19-.02v-.15h.1V11.91h-.08c-.27,0-.6,0-.91-.02h-.72c-1.35,0-3.23.04-6.84.21-3.62.17-8.97.52-13.59.95-4.62.43-8.53.91-10.48,1.16-.7.06-1.12.15-1.39.23h-.02l.02.04s-.04.02-.08.02l3.5,18.56c.06.04.1.1.15.14.29.41.77.25,1.86.12,1.86-.23,5.53-.68,7.4-.89.31-.04.5-.04.7-.06l.31,5.3c-5.36.66-10.69,1.31-13.4,1.66-.33.04-.6.06-.85.1l-1.82.35-5.74-29.35,5.39-.56c5.39-.56,16.2-1.66,25.19-2.17,4.49-.25,8.53-.37,12.28-.37l.06-.29ZM334.69,531.59l.14-.02v-.02s-.1.04-.14.04ZM289.72,0c-2.92-.02-5.78.04-8.84.14-6.13.21-13.05.68-20.53,1.45-7.48.77-15.52,1.88-19.53,2.44-2.3.31-3.23.43-3.77.44-.1.04-.19.04-.25.1l7.98,42.8-.33-1.14c.21.97.29,1.22.35,1.28l.02.06h.04c.04.12.06.12.1.12.06,0,.14-.04.19-.04.04,0,.08,0,.12-.02.06-.02.12-.02.15-.04h.04c.06,0,.12-.04.17-.04.14-.04.14-.02.62-.06.48-.06,1.37-.23,2.98-.48,1.59-.25,3.87-.6,6.86-.97h.06c1.12-.14,2.38-.27,3.65-.41,1.35-.14,2.76-.27,4.16-.39.41-.04,1.01-.12,1.55-.17.31-.04.54-.04.91-.1,1.62-.17,3.67-.39,5.61-.54.77-.04,1.3-.06,1.86-.12v-.04c.06,0,.14-.02.19-.04v-.14s.06-.02.1-.02l-.66-19.22-.08.02v-.02l-.27.04v-.04l-1.35.12c-.87.04-1.84.1-2.84.17-1.33.1-2.38.19-3.56.29l-2.71.21-.91-5.1,2.44-.29,3.13-.33c3.79-.25,8.31-.52,11.39-.68.37-.04.5-.04.75-.04l.52,29.81c-.77.04-1.84.04-3.29.14h-.04c-1.45.06-3.25.21-5.47.41-4.93.44-11.83,1.22-16.61,1.84-4.78.62-7.4,1.04-8.97,1.33-.17.04-.21.04-.37.06-2.78.44-4.89.91-6.53,1.35-1.6.37-3.75.89-7.39,1.88-4.64,1.26-11.31,3.17-16.05,4.66-4.31,1.35-6.94,2.32-8.39,2.88l-10.92-27.72c.15-.04.27-.1.54-.19,2.9-1.02,7.19-2.49,10.79-3.73l3.02-.89,2.53-.72,1.1,5.03s-.04.02-.04.04l-2.44.79c-1.12.37-2.15.68-3.4,1.08-.97.31-1.88.64-2.69.93l-1.3.41.02.04-.35.1-.06.04,6.75,18.02h.02l.04.06s.08-.04.12-.04l.06.1c.54-.17,1.02-.35,1.76-.58,1.88-.6,3.89-1.2,5.45-1.66.93-.27,1.68-.48,2.3-.66,2.67-.83,5.39-1.66,7.69-2.3,2.94-.81,5.18-1.35,6.75-1.74,1.57-.37,2.46-.58,2.94-.68q.46-.1.6-.15c.14-.04.35-.1.46-.14.02,0,.02-.04.02-.04.04-.02.08-.04.12-.04.06-.02.06-.04.06-.15.04-.02.06-.04.06-.04l-8.7-42.92-.27.04c-.23-.04-.5.04-.87.1-1.57.39-4.66,1.12-8.91,2.24s-9.65,2.59-15.6,4.45c-5.95,1.86-12.45,4.08-17.3,5.84-2.32.85-4.21,1.57-5.78,2.18l-.02-.04-.33.14v-.02l-.83.35s-.06.04-.06.04c-.35.15-.97.41-1.41.6-.46.19-1.16.46-1.49.6l-.83.35-.06.04.02.04c-1.55.68-3.4,1.49-5.65,2.53-4.68,2.17-10.85,5.2-16.36,8.1-5.51,2.9-10.38,5.66-14.19,7.89-3.79,2.22-6.52,3.89-7.89,4.72-.31.19-.54.35-.68.54l24.13,36.56-.12.06c.06.06.1.06.12.04.04-.04.08-.04.12-.04.08-.04.19-.1.29-.17.04-.04.08-.04.12-.04q.12-.04.52-.33c.41-.25,1.18-.75,2.55-1.59,1.37-.85,3.34-2.05,6.01-3.54.81-.44,1.7-.95,2.61-1.43.23-.12.43-.25.66-.37,1.2-.64,2.44-1.3,3.69-1.95.25-.15.64-.35.93-.52.39-.21.73-.43,1.24-.7t.04-.04c1.41-.75,3.21-1.72,4.91-2.61.68-.35,1.16-.58,1.66-.83v-.02c.06-.04.1-.04.12-.04l-.04-.06s.02,0,.04-.02l-.02-.04h.02v-.02s.1-.04.14-.06l-.04-.04.02-.02-7.97-17.52-.33.17-.04-.04-.06.04v-.02l-1.22.62c-.79.37-1.66.79-2.57,1.26-1.18.6-2.13,1.08-3.17,1.62l-2.34,1.18-2.76-4.35,2.24-1.26,1.39-.77,1.26-.68c3.42-1.68,7.48-3.65,10.27-4.99.35-.15.46-.21.7-.33l11.89,27.34c-1.41.64-3.96,1.8-7.97,3.91-4.39,2.3-10.46,5.66-14.63,8.04-4.18,2.4-6.44,3.81-7.79,4.66-.25.17-.35.21-.54.35h-.02c-1.1.68-2.07,1.31-2.92,1.89t-.08.04c-.85.58-1.59,1.12-2.22,1.6-1.35.97-3.13,2.26-6.11,4.56-3.81,2.94-9.24,7.27-13.03,10.44-3.46,2.9-5.53,4.81-6.65,5.88l-20.69-21.34c.15-.15.27-.25.52-.48,2.3-2.07,5.68-5.05,8.55-7.56l2.46-1.97,1.95-1.55,2.96,4.23-1.99,1.7c-.91.77-1.72,1.45-2.73,2.32-.77.66-1.49,1.3-2.13,1.89l-1.04.87.04.04-.33.27,13.13,14.05.04.04c.06-.04.08-.04.12-.1h.02s.04-.04.04-.04h.02l.02.02s.04-.04.04-.04l.06.04c.43-.37.81-.73,1.41-1.22,1.49-1.28,3.11-2.59,4.39-3.63.75-.6,1.37-1.1,1.88-1.49,2.15-1.8,4.35-3.6,6.24-5.07,2.4-1.88,4.27-3.25,5.57-4.2,1.31-.95,2.05-1.47,2.44-1.76q.39-.29.5-.37c.1-.06.27-.21.37-.29v-.04s.04-.04.04-.04l-24.65-36.35-.04.04c-.23.04-.46.21-.75.43-1.3.95-3.89,2.82-7.39,5.47-3.5,2.67-7.91,6.09-12.7,10.09-4.79,3.98-9.96,8.53-13.75,12.01-1.82,1.68-3.29,3.07-4.5,4.23l-.04-.04-.31.29-.02-.02-.64.64c-.25.25-.77.79-1.12,1.14-.37.35-.89.87-1.14,1.12l-.66.7.04.04c-1.16,1.2-2.57,2.67-4.23,4.5-3.48,3.79-8.02,8.95-12.01,13.75s-7.42,9.2-10.09,12.7c-2.67,3.5-4.54,6.09-5.49,7.39-.21.31-.37.52-.43.75l-.04.04,36.17,24.57-.06.06q.06.02.08-.02s.04-.04.04-.04c0,0,.02,0,.02-.02t.04-.02s.02-.04.02-.04c.1.04.14.04.15.04.08-.06.21-.27.29-.37q.1-.1.37-.5c.29-.39.81-1.14,1.76-2.44.95-1.31,2.3-3.17,4.2-5.57,1.49-1.89,3.29-4.1,5.07-6.24.39-.52.87-1.14,1.49-1.88,1.02-1.28,2.36-2.9,3.63-4.39.5-.58.85-.97,1.22-1.39l-.02-.02s.04-.04.06-.04l-.04-.08s.04-.04.04-.04l-.06-.04s.04-.04.06-.04l-14.05-13.13-.04-.04-.15.19-.02-.02-.06.04-.04-.04-.06.06-.06-.04-.87,1.04c-.58.64-1.24,1.37-1.89,2.15-.87,1.01-1.55,1.82-2.32,2.73l-1.7,1.99-4.23-2.94,1.6-2.03,1.97-2.46c2.51-2.86,5.51-6.24,7.58-8.55.21-.23.31-.33.43-.46l21.44,20.69c-1.06,1.12-2.98,3.19-5.88,6.65-3.17,3.79-7.5,9.22-10.44,13.03-2.94,3.81-4.49,5.97-5.39,7.29-.33.46-.5.73-.68,1.01-.06.04-.06.06-.08.12-1.53,2.17-2.59,3.89-3.36,5.26,0,0,0,.02-.02.04-.87,1.39-1.93,3.15-3.62,6.09-2.4,4.18-5.76,10.25-8.04,14.63-2.05,3.92-3.21,6.44-3.85,7.87l-27.36-11.91c.1-.19.15-.33.31-.66,1.33-2.78,3.33-6.84,4.99-10.27l1.37-2.51.1-.15.06-.06,1.22-2.17,4.37,2.78s-.02.04-.04.06l-1.2,2.38c-.54,1.06-1.02,1.99-1.62,3.17-.46.91-.87,1.78-1.24,2.55l-.64,1.22.04.02-.06.14-.08.14,17.52,7.97s.06-.04.06-.1l.12.04s.04-.04.06-.04l.04.02s.04-.04.04-.06c.25-.5.48-.99.83-1.66.87-1.72,1.86-3.52,2.63-4.95v-.02c.46-.85.83-1.53,1.16-2.09.02-.04.04-.04.04-.06l.02-.04c.64-1.2,1.28-2.42,1.91-3.6,0,0,0-.02.02-.02.37-.68.72-1.3,1.06-1.93.19-.33.39-.7.56-1.02.08-.14.15-.29.23-.43v-.02l.02-.04c1.49-2.63,2.69-4.6,3.54-5.97.85-1.37,1.33-2.15,1.59-2.55q.25-.41.33-.52c.06-.12.17-.31.23-.41l-36.65-24.28-.08.14c-.06.04-.14.12-.19.19-.12.14-.23.29-.35.48-.85,1.37-2.49,4.1-4.72,7.89-2.22,3.79-4.99,8.66-7.89,14.17s-5.92,11.7-8.1,16.36c-1.04,2.24-1.88,4.1-2.53,5.65l-.04-.04-.12.27-.08.17-.27.66c-.12.29-.35.85-.52,1.31-.19.46-.44,1.06-.58,1.37l-.12.27-.35.83.04.02c-.62,1.57-1.33,3.46-2.18,5.78-1.76,4.83-3.98,11.35-5.84,17.3-1.86,5.95-3.34,11.35-4.45,15.6-1.12,4.25-1.86,7.35-2.24,8.91-.1.37-.14.64-.1.87l-.06.23,39.86,8.22c2.11.41,2.98.56,3,.48.14.02.15-.02.15-.04.04-.02.04-.04.04-.04,0-.04.02-.04.04-.04.04-.02.04-.04.04-.04.06-.1.1-.33.14-.44q.04-.14.15-.6c.12-.46.31-1.37.68-2.94.37-1.57.93-3.81,1.74-6.75.64-2.32,1.47-5.03,2.3-7.69.15-.62.37-1.37.66-2.3.46-1.57,1.06-3.58,1.68-5.45.23-.73.41-1.22.58-1.76h-.02s.02-.04.04-.04l-.04-.02s.02-.04.04-.04l-.06-.04s.04-.04.04-.06l-18.02-6.75-.04.12-.06-.04-.06.14h-.02l-.06.15-.04-.02-.41,1.3c-.29.83-.62,1.72-.93,2.69-.41,1.26-.73,2.26-1.1,3.4l-.81,2.49-5.05-1.12.7-2.49.89-3.02c1.24-3.6,2.69-7.87,3.73-10.79.1-.29.15-.43.21-.58l27.74,10.92c-.56,1.45-1.53,4.08-2.88,8.39-1.49,4.72-3.4,11.39-4.66,16.05-1.26,4.64-1.86,7.23-2.2,8.8-.35,1.57-.41,2.09-.44,2.34-.02.06,0,.15.04.19-.04.1-.04.21-.06.33-.06.04-.1.06-.14.17-.06.25-.19.75-.48,2.34-.29,1.57-.72,4.21-1.33,8.97-.62,4.78-1.39,11.68-1.84,16.61-.41,4.5-.5,7.31-.56,8.85l-29.79-.52c.02-.19.02-.33.04-.68.15-3.07.44-7.6.7-11.39l.33-3.02v-.02l.02-.1.14-1.08.15-1.37,5.07.89-.19,2.53c-.1,1.18-.19,2.24-.29,3.56-.08,1.01-.14,1.97-.17,2.84l-.12,1.35h.06l-.06.5,19.22.66v-.06h.06v-.04h.08s0-.04.02-.04h.04v-.04c.04-.56.06-1.08.14-1.86.15-1.95.37-4.04.54-5.66.1-.97.19-1.74.29-2.38.25-2.78.54-5.61.83-8,.37-3.02.73-5.32.99-6.9.17-1.08.25-1.51.33-2.03.04-.23.14-.75.15-.91v-.08c.08-.41.08-.46.1-.58.02-.14.04-.35.06-.46l-43.13-8.45c-.12.19-.17.46-.23.85-.25,1.59-.75,4.74-1.33,9.11-.6,4.35-1.3,9.92-1.86,16.12-.56,6.21-1.01,13.07-1.22,18.21-.1,2.47-.15,4.5-.17,6.19l-.14.04v1.41c0,.33.02,1.02.02,1.53,0,.37,0,.72-.02.99v1.57l.04-.02c.06,1.68.08,3.71.17,6.19.21,5.14.66,12.01,1.22,18.21.56,6.21,1.26,11.75,1.86,16.12.6,4.35,1.08,7.5,1.33,9.11.06.37.12.64.23.83l.04.17.04.04,43.11-8.6c-.02-.12-.06-.33-.06-.46q-.04-.14-.1-.62c-.08-.48-.23-1.37-.48-2.98-.25-1.59-.62-3.89-.99-6.9-.29-2.38-.58-5.22-.83-8-.1-.64-.17-1.41-.29-2.38-.17-1.62-.39-3.71-.54-5.66-.06-.77-.1-1.3-.14-1.86h-.02v-.04h-.04v-.04h-.08v-.04h-.02v-.06l-19.22.66.04.33.04.17h-.04l.12,1.37c.04.87.1,1.84.17,2.84.1,1.33.19,2.38.29,3.56l.19,2.55-5.07.89-.29-2.51-.33-3.13c-.23-3.79-.52-8.31-.68-11.39-.04-.29-.04-.43-.04-.6l29.79-.52c.04,1.55.15,4.35.56,8.85.44,4.93,1.22,11.83,1.84,16.61.62,4.78,1.04,7.4,1.33,8.97.29,1.57.43,2.09.48,2.34.06.1.06.15.14.17.04.1.06.21.06.31-.06.04-.06.1-.06.19.06.25.1.77.44,2.34.35,1.57.95,4.16,2.2,8.8,1.26,4.64,3.17,11.31,4.66,16.05,1.35,4.31,2.32,6.94,2.88,8.39l-27.8,10.92c-.06-.15-.1-.27-.19-.54,0-.02-.02-.04-.02-.04-1.02-2.9-2.49-7.17-3.71-10.75l-.89-3.02-.72-2.53,5.05-1.12.81,2.49c.37,1.12.68,2.15,1.1,3.4.31.97.64,1.88.93,2.69l.41,1.3.04-.02.04.15.06.15.06-.04.04.1,18.02-6.75s-.04-.04-.04-.06l.06-.04s-.02-.04-.04-.04l.04-.02s-.02-.04-.02-.04c-.17-.54-.35-1.02-.58-1.76-.6-1.86-1.2-3.85-1.66-5.41-.27-.93-.5-1.68-.66-2.3-.21-.66-.41-1.31-.6-1.99-.21-.68-.43-1.37-.62-2.03-.39-1.3-.75-2.53-1.06-3.67-.81-2.94-1.37-5.18-1.74-6.75-.37-1.57-.58-2.46-.68-2.94q-.12-.46-.15-.6s-.02-.04-.02-.04c-.04-.12-.1-.29-.12-.43,0-.02,0-.04-.02-.04,0,0-.02,0-.02-.02l-43.03,8.93c0,.19.06.41.1.7.39,1.57,1.12,4.66,2.24,8.91,1.12,4.25,2.61,9.65,4.47,15.6s4.08,12.45,5.84,17.3c.85,2.32,1.57,4.21,2.18,5.78l-.04.02.12.29h-.02l.35.83c.14.33.43,1.01.62,1.49.19.46.46,1.16.6,1.49l.35.83.06-.04c.66,1.55,1.49,3.4,2.53,5.65,2.17,4.68,5.2,10.85,8.1,16.36,2.9,5.51,5.66,10.38,7.89,14.19,2.22,3.79,3.89,6.52,4.72,7.89.19.31.35.54.54.68l.29.46,36.35-24.59s-.04-.04-.04-.04c-.04-.04-.08-.15-.14-.23-.04-.04-.06-.06-.08-.14,0-.02-.04-.04-.04-.04-.06-.1-.1-.17-.29-.48,0-.02-.04-.04-.04-.04-.04-.04-.15-.25-.19-.31,0-.02-.04-.04-.04-.04-.27-.44-.64-1.01-1.35-2.17-.85-1.37-2.05-3.34-3.54-5.99v-.02c-.08-.14-.15-.29-.23-.43-.5-.89-1.02-1.84-1.57-2.84-.02-.04-.04-.04-.04-.04-.02-.04-.04-.04-.04-.04-.52-.97-1.04-1.95-1.57-2.96-.08-.14-.15-.27-.21-.41-.04-.04-.06-.12-.1-.17,0-.02-.02-.04-.04-.04t-.06-.06c-.33-.54-.72-1.24-1.16-2.07,0-.02-.02-.02-.04-.04-.77-1.41-1.72-3.21-2.61-4.91-.35-.68-.58-1.16-.83-1.66,0-.02-.02-.04-.04-.04-.02-.04-.04-.04-.06-.06-.02-.04-.04-.04-.04-.04l-.12.04s-.04-.06-.04-.1l-17.52,7.97.08.14.06.14-.04.02.64,1.22c.37.79.79,1.66,1.26,2.55.6,1.18,1.08,2.13,1.62,3.17l1.24,2.44v.04l-4.39,2.8-1.22-2.17-.04-.06-.1-.15-1.37-2.51c-1.66-3.4-3.65-7.44-4.97-10.23t-.02-.04l-.02-.04s-.04-.06-.06-.14c-.1-.19-.15-.35-.25-.52l27.36-11.89c.64,1.43,1.8,3.92,3.85,7.87,2.3,4.39,5.66,10.46,8.04,14.63,1.66,2.92,2.75,4.7,3.62,6.09.83,1.49,1.99,3.34,3.69,5.74.15.21.23.37.44.68.91,1.31,2.46,3.48,5.39,7.29,2.94,3.81,7.27,9.24,10.44,13.03,2.9,3.46,4.81,5.53,5.88,6.65l-21.32,20.65c-.12-.14-.21-.23-.43-.46-2.07-2.28-5.05-5.66-7.56-8.53,0,0-.02-.02-.04-.02l-1.93-2.4-.87-1.08-.77-.99,4.21-2.96,1.72,1.99c.77.91,1.45,1.7,2.32,2.73.66.77,1.3,1.49,1.89,2.13l.89,1.04.02-.02.06.04.04-.04.04.04.02-.02.15.19.04-.04,14.05-13.13-.04-.04.04-.04s-.02-.04-.04-.04l.04-.04s-.04-.04-.04-.04c-.37-.43-.72-.81-1.22-1.39-1.28-1.49-2.61-3.13-3.63-4.39-.6-.75-1.1-1.37-1.49-1.88-1.8-2.15-3.6-4.35-5.07-6.24-1.86-2.38-3.21-4.21-4.16-5.53-.04-.04-.02-.04-.04-.04-.93-1.28-1.43-2.01-1.72-2.4-.04-.04-.02-.04-.06-.04q-.29-.39-.37-.5c-.1-.1-.21-.27-.29-.37-.04-.04-.06-.04-.14.04,0-.02-.02-.04-.02-.04-.02-.02-.04-.04-.06-.04l-.02-.02-36.11,24.78-.04.04c.08.17.19.35.35.58.95,1.3,2.82,3.89,5.49,7.39,2.67,3.5,6.09,7.93,10.09,12.7,3.98,4.79,8.53,9.96,12.01,13.75,1.68,1.82,3.07,3.29,4.23,4.5l-.04.04.64.64c.25.25.79.77,1.14,1.12.35.37.87.89,1.12,1.14l.62.64.02-.02.31.29.04-.04c1.2,1.16,2.69,2.55,4.5,4.23,3.79,3.48,8.95,8.02,13.75,12.02,4.79,3.98,9.2,7.42,12.7,10.09,3.5,2.67,6.07,4.52,7.39,5.47.31.21.52.37.75.43l24.67-36.15s.04-.06.04-.1t-.02-.06s-.04-.04-.04-.04v-.04c-.1-.06-.27-.21-.37-.29q-.1-.06-.5-.37c-.39-.29-1.14-.81-2.44-1.76-1.31-.95-3.17-2.32-5.57-4.2-1.89-1.49-4.1-3.29-6.24-5.07-.52-.39-1.14-.87-1.88-1.49-1.28-1.02-2.9-2.36-4.39-3.63-.58-.5-.99-.85-1.41-1.22l-.06.04s-.04-.04-.04-.04l-.02.02-.04-.04s-.08-.04-.12-.1l-.06.04-13.13,14.05.33.27-.04.04,1.04.89c.64.58,1.37,1.24,2.13,1.89,1.01.87,1.82,1.55,2.73,2.32l1.99,1.7-2.96,4.23-1.95-1.55-2.46-1.97c-2.86-2.51-6.24-5.51-8.55-7.56-.27-.25-.37-.33-.52-.48l20.71-21.44c1.12,1.06,3.19,2.98,6.65,5.88,3.79,3.17,9.22,7.5,13.03,10.44,2.94,2.28,4.72,3.58,6.07,4.52,1.35,1.02,3.11,2.28,5.51,3.75.12.06.15.1.29.19,1.35.87,3.62,2.28,7.79,4.66,4.18,2.4,10.25,5.76,14.63,8.04,2.01,1.04,3.63,1.86,4.95,2.49.04.02.04,0,.04.02.44.21.64.29,1.01.46.15.06.35.17.52.25.48.21,1.12.52,1.45.68l-11.89,27.34c-.23-.1-.35-.15-.7-.31-2.78-1.33-6.84-3.33-10.27-4.99l-2.76-1.51-2.13-1.18,2.78-4.35,2.32,1.18c1.06.54,1.99,1.02,3.17,1.62.91.46,1.78.87,2.55,1.26l1.22.62.06.04.04-.04.33.17,7.97-17.52s-.02,0-.02-.02l.04-.04s-.1-.04-.14-.06v-.02s-.02,0-.02-.02l.02-.04s-.02-.02-.04-.02l.06-.06c-.06-.04-.08-.04-.12-.04-.46-.23-.93-.44-1.55-.77t-.06-.04c-1.74-.89-3.58-1.88-4.99-2.65-.85-.46-1.55-.85-2.09-1.18t-.04-.04s-.06-.04-.08-.04c-.95-.5-1.89-1.01-2.82-1.49-.25-.14-.5-.27-.73-.39-1.2-.66-2.36-1.28-3.4-1.88-2.65-1.49-4.62-2.71-5.99-3.54-1.37-.85-2.15-1.33-2.55-1.59q-.41-.25-.54-.33c-.12-.04-.31-.17-.41-.23h-.02l-24.24,36.65c.14.19.37.35.68.54,1.37.85,4.1,2.51,7.89,4.72,3.79,2.22,8.66,4.99,14.19,7.89,5.51,2.9,11.7,5.94,16.36,8.1,2.24,1.04,4.1,1.86,5.65,2.53l-.02.04.06.04.77.31.06.04c.35.14.99.39,1.43.58.04.02.04.04.06.04.46.19,1.1.46,1.41.6.04.02.06.04.06.04l.75.31.06.04.33.15.02-.04c1.57.62,3.46,1.33,5.78,2.18,4.83,1.76,11.35,3.98,17.3,5.84,5.95,1.86,11.35,3.34,15.6,4.45,4.25,1.12,7.35,1.86,8.91,2.24.37.06.64.15.87.1l.23.04,8.76-42.76c0-.12-.04-.12-.04-.12-.06,0-.06-.02-.08-.04.02-.14-.02-.15-.04-.17-.04-.02-.08-.04-.12-.04,0-.02,0-.04-.02-.04-.12-.04-.33-.06-.46-.14q-.14-.04-.6-.15c-.46-.1-1.37-.31-2.94-.68-1.57-.37-3.81-.93-6.75-1.74-2.32-.64-5.03-1.47-7.69-2.3-.62-.15-1.37-.37-2.3-.66-1.57-.46-3.58-1.06-5.45-1.66-.73-.23-1.24-.41-1.76-.6l-.04.1c-.06-.02-.08-.04-.12-.04l-.04.06h-.02l-6.75,18.02.41.14-.02.04,1.3.41c.83.29,1.72.62,2.69.93,1.26.41,2.26.73,3.4,1.1l2.44.79s.04.02.04.04l-1.1,5.03-2.53-.72-3.02-.89c-3.6-1.24-7.89-2.71-10.79-3.73-.27-.1-.39-.14-.54-.19l10.92-27.74c1.45.56,4.08,1.53,8.39,2.88,4.72,1.49,11.41,3.4,16.05,4.66,3.67,1.01,5.84,1.53,7.44,1.89,1.64.43,3.73.89,6.48,1.31.15.04.19.04.37.06,1.57.29,4.2.73,8.97,1.33,4.78.62,11.68,1.39,16.61,1.84,4.45.39,7.21.5,8.78.54l-.52,29.83c-.23-.02-.37-.02-.75-.04-3.07-.15-7.6-.44-11.39-.68l-3.13-.33-2.44-.29.91-5.1,2.69.21c1.18.1,2.22.19,3.56.29,1.01.06,1.97.14,2.84.17l1.35.12v-.04l.27.04v-.02h.08l.66-19.22h-.1v-.15c-.06,0-.14-.02-.19-.04v-.02c-.56-.04-1.08-.04-1.86-.12-1.93-.15-3.98-.37-5.61-.54-.37-.04-.6-.06-.91-.1-.54-.04-1.12-.12-1.55-.17-1.39-.12-2.8-.25-4.16-.39-1.28-.14-2.51-.27-3.65-.41t-.04-.02c-3-.37-5.28-.72-6.86-.97-1.59-.25-2.49-.41-2.98-.48q-.48-.06-.62-.06c-.06,0-.1-.04-.17-.04h-.04c-.06-.02-.1-.02-.15-.04-.04,0-.08-.02-.12-.02-.08-.02-.15-.04-.19-.04q-.06,0-.1.12h-.04l-8.04,43.02c.1.04.21.1.35.14.14.04.31.06.5.1,1.59.25,4.74.75,9.11,1.33,4.35.6,9.92,1.3,16.12,1.86,6.21.56,13.07,1.01,18.21,1.22,2.47.1,4.49.15,6.17.17v.04h.04v.02l.89.02h.29c.29,0,.87-.02,1.33-.02.5,0,1.24.02,1.6.02h1.16v-.02h.08v-.04c1.68-.04,3.71-.06,6.19-.17,5.14-.21,12.01-.66,18.21-1.22,6.21-.56,11.75-1.26,16.12-1.86,4.35-.6,7.5-1.08,9.11-1.33.37-.04.64-.1.83-.23l.23-.04-8.53-42.65-.08-.41s-.04-.04-.06-.04c-.12.02-.33.04-.46.04-.14.04-.14.02-.62.06-.48.06-1.37.23-2.98.48-1.59.25-3.89.62-6.9.99-2.38.29-5.2.58-7.98.83-.64.1-1.41.17-2.38.29-1.62.17-3.71.39-5.66.54-.77.04-1.3.1-1.86.14v.1c-.06,0-.1.02-.15.02l.66,19.22.06-.02v.06h.02l.27-.04v.04l.08-.02v.02l1.37-.12c.87-.04,1.84-.1,2.84-.17,1.33-.1,2.38-.19,3.56-.29l2.63-.19.89,5.07-2.61.31-3.13.33c-3.79.25-8.31.52-11.39.68-.29.04-.43.04-.6.04l-.52-29.79c1.57-.04,4.33-.15,8.78-.54t.06-.02h.04c2.44-.21,5.37-.52,8.27-.85,2.96-.33,5.92-.68,8.31-.99.5-.04.75-.1,1.22-.17.66-.06,1.18-.17,1.76-.25.44-.04.99-.14,1.39-.19t.04-.02c1.1-.15,1.99-.29,2.75-.43.04,0,.06-.02.1-.04,1.8-.23,4.06-.6,7.13-1.35t.06-.02c.06-.02.14-.04.17-.04,1.57-.35,4.12-.93,8.64-2.17,4.64-1.26,11.31-3.17,16.05-4.66,4.29-1.35,6.9-2.32,8.37-2.86l9.67,24.53,1.26,3.17c-.17.04-.31.1-.62.21-2.9,1.02-7.19,2.49-10.79,3.73l-3.02.89-2.46.7-1.1-5.01,2.53-.83c1.12-.37,2.15-.68,3.4-1.1.97-.31,1.88-.64,2.71-.93l1.3-.41h.04l-.02-.04.25-.06-.02-.04.1-.04-6.75-18.02s-.06.04-.1.04l-.04-.12s-.06.04-.1.04l-.04-.04c-.54.17-1.02.35-1.76.58-1.88.6-3.89,1.2-5.45,1.66-.93.27-1.68.48-2.3.66-2.67.83-5.39,1.64-7.69,2.3-2.94.81-5.18,1.37-6.75,1.74-1.57.37-2.46.58-2.94.68q-.46.1-.6.15c-.14.04-.33.1-.44.14l8.93,43.05c.21.02.44-.04.75-.1,1.57-.39,4.66-1.12,8.91-2.24,4.25-1.12,9.65-2.61,15.6-4.45,5.95-1.86,12.45-4.08,17.3-5.84,2.32-.85,4.21-1.57,5.78-2.18l.04.04.83-.35c.33-.14,1.01-.43,1.47-.62.46-.19,1.16-.46,1.49-.6l.83-.35v-.02l.35-.15-.04-.04c1.55-.66,3.4-1.49,5.65-2.53,4.68-2.17,10.85-5.2,16.36-8.1,5.51-2.9,10.38-5.66,14.19-7.89,3.79-2.22,6.52-3.89,7.89-4.72.31-.19.54-.35.68-.54l.29-.17-24.32-36.4s-.08-.04-.1-.04c-.1.04-.29.17-.41.23-.04.04-.1.04-.12.04-.08.04-.1.04-.43.25-.06.04-.04.02-.12.04-.41.25-1.18.75-2.55,1.59-.66.41-1.47.91-2.42,1.47-1.01.6-2.15,1.28-3.48,2.01-2.09,1.18-4.6,2.51-7.08,3.81-.56.33-1.24.72-2.09,1.18-1.43.77-3.29,1.78-5.05,2.67-.68.35-1.16.58-1.66.83v.02s-.08.04-.12.04l.04.1s-.08.04-.1.04l7.97,17.52.06-.04.04.06.25-.14v.02l.1-.04.02.04,1.22-.64c.79-.37,1.66-.79,2.57-1.26,1.18-.6,2.13-1.08,3.17-1.62l2.34-1.18h.04l.93,1.45,1.84,2.9-2.2,1.22-2.76,1.51c-3.42,1.68-7.48,3.65-10.27,4.99-.31.15-.44.21-.62.29l-11.89-27.32c.89-.41,2.42-1.12,4.29-2.05,0,0,.02,0,.04-.02.58-.29,1.22-.62,1.91-.97.62-.31,1.04-.52,1.76-.89,4.39-2.3,10.46-5.66,14.63-8.04,4.18-2.4,6.44-3.81,7.79-4.66,1.33-.87,1.76-1.18,1.97-1.33.06-.04.1-.06.1-.1.15-.1.31-.21.46-.31.04-.02.06-.02.1-.04.23-.14.68-.39,1.99-1.31,1.31-.91,3.48-2.46,7.29-5.39,3.81-2.94,9.24-7.27,13.03-10.44,3.46-2.9,5.53-4.81,6.65-5.88l20.71,21.44c-.15.14-.25.23-.5.46-2.3,2.07-5.68,5.07-8.55,7.58l-2.46,1.97-2.09,1.64-2.96-4.21s.04-.04.04-.04l2.07-1.78c.91-.77,1.72-1.45,2.73-2.32.77-.66,1.49-1.3,2.13-1.89l1.04-.87-.04-.04.21-.17-.02-.02h.02l-13.13-14.05h-.02l-.04-.04-.02.02-.06-.06s-.04.04-.06.04l-.04-.04c-.43.37-.81.72-1.39,1.22-1.49,1.28-3.13,2.61-4.39,3.63-.75.6-1.37,1.1-1.88,1.49-2.15,1.8-4.35,3.6-6.24,5.07-2.4,1.88-4.27,3.25-5.57,4.2-1.31.95-2.05,1.47-2.44,1.76-.39.29-.41.27-.5.37-.1.06-.27.23-.37.29v.04s-.06.04-.08.04l24.8,36.25c.19-.06.41-.19.66-.39,1.3-.95,3.89-2.82,7.39-5.47,3.5-2.67,7.93-6.09,12.7-10.09,4.79-3.98,9.96-8.55,13.75-12.02,1.82-1.68,3.29-3.07,4.5-4.23l.06.04.66-.64.17-.19v-.02c.21-.21.6-.62.93-.95.35-.37.89-.87,1.14-1.12h.02l.64-.62.19-.17-.04-.04c1.16-1.2,2.57-2.67,4.23-4.5,3.48-3.79,8.02-8.95,12.02-13.75,3.98-4.79,7.42-9.2,10.09-12.7,2.67-3.5,4.52-6.09,5.47-7.39.21-.31.39-.54.43-.75l.1-.14-36.35-24.59s-.02.04-.04.04c-.04-.02-.06,0-.08.02-.08.06-.21.27-.29.37l-.06.04-.02.02s-.04.04-.04.04c-.08.1-.1.1-.37.48-.29.39-.81,1.14-1.76,2.46-.46.66-1.04,1.45-1.74,2.38-.19.25-.46.62-.68.89-.14.17-.27.37-.41.54-.41.54-.79,1.04-1.28,1.68-1.49,1.89-3.29,4.1-5.07,6.24-.39.52-.87,1.14-1.49,1.88-1.02,1.28-2.36,2.9-3.63,4.39-.5.58-.85.99-1.22,1.41h.02q-.06.04-.08.06l.12.1v.02l.02.02s-.04.04-.04.04l14.05,13.13.17-.19.02.02v-.02l.02.02.89-1.04c.58-.64,1.24-1.35,1.89-2.13.87-1.01,1.55-1.82,2.32-2.73l1.78-2.09s.04-.04.04-.04l4.21,2.96-1.6,2.03-1.97,2.46c-2.51,2.86-5.51,6.24-7.58,8.55-.25.29-.35.39-.52.56l-21.44-20.71c1.06-1.12,2.98-3.19,5.88-6.65,3.17-3.79,7.5-9.22,10.44-13.03,2.59-3.36,4-5.32,4.95-6.65.12-.17.35-.48.44-.62.62-.89.75-1.12.93-1.41.06-.06.27-.41.31-.46.19-.29.33-.52.52-.81.04-.04.06-.04.06-.04.15-.21.48-.62,1.33-1.97.87-1.35,2.28-3.62,4.66-7.77,2.4-4.18,5.76-10.25,8.04-14.63,2.09-4,3.27-6.55,3.91-7.97l27.32,11.89c-.1.19-.15.31-.31.64-1.33,2.78-3.31,6.84-4.99,10.27l-1.51,2.76-1.3,2.3-4.31-2.76s.02-.04.04-.04l1.24-2.44c.54-1.06,1.02-1.99,1.62-3.17.46-.91.87-1.78,1.26-2.57l.64-1.22-.04-.02.14-.25-17.52-7.97-.04-.04v.02l-.12-.04s-.04.04-.04.06l-.06-.04c-.25.5-.48.97-.83,1.66-.89,1.74-1.89,3.6-2.67,5.03-.46.85-.83,1.55-1.18,2.09-1.3,2.47-2.65,4.99-3.83,7.08-1.49,2.65-2.71,4.62-3.54,5.99-.85,1.37-1.33,2.15-1.59,2.55q-.25.41-.33.52c-.06.12-.17.31-.23.41t.08.14l36.46,24.32.17-.27c.19-.14.35-.37.54-.68.85-1.37,2.51-4.1,4.72-7.89,2.22-3.79,4.99-8.66,7.89-14.19,2.9-5.51,5.94-11.7,8.1-16.37,1.04-2.24,1.88-4.1,2.53-5.63l.06.04.33-.83.1-.23v-.02c.12-.27.33-.79.5-1.24.19-.46.48-1.16.62-1.49v-.02l.35-.83.1-.25-.04-.02h-.02c.62-1.57,1.35-3.46,2.18-5.78,1.76-4.83,3.98-11.35,5.84-17.3,1.86-5.95,3.34-11.35,4.45-15.6,1.12-4.25,1.86-7.35,2.24-8.91.08-.33.12-.58.1-.79l-43.03-8.95c-.06.12-.08.29-.12.41q-.04.14-.15.6c-.12.46-.31,1.35-.68,2.94-.37,1.57-.93,3.83-1.74,6.75-.64,2.32-1.47,5.05-2.3,7.69-.15.62-.37,1.37-.66,2.3-.46,1.57-1.06,3.58-1.66,5.45-.23.73-.41,1.24-.6,1.76l.08.04s0,.04-.02.04v.04l.04.02s-.02.04-.02.04l.04.02s-.02.04-.04.06l.06.04v.02h.02l18.02,6.75.08-.25.06.02.41-1.3c.29-.83.62-1.72.93-2.69.41-1.26.73-2.26,1.08-3.4l.85-2.61s.02-.04.06-.04l5.03,1.1-.7,2.47-.89,3.02c-1.24,3.6-2.69,7.89-3.73,10.79-.14.37-.17.48-.27.73l-27.72-10.94c.56-1.45,1.53-4.08,2.88-8.39,1.49-4.72,3.4-11.41,4.66-16.05,1.12-4.1,1.66-6.44,2.03-8.04.06-.21.14-.58.17-.75.31-1.39.39-1.89.43-2.18.06-.35.12-.64.17-.93.04-.04.06-.04.06-.06.06-.25.19-.75.48-2.34.29-1.57.72-4.21,1.33-8.97.62-4.78,1.39-11.68,1.84-16.61.41-4.5.5-7.31.56-8.85l29.79.52c-.02.25-.04.39-.06.77-.15,3.07-.44,7.6-.68,11.39l-.33,3.07-.02.04-.31,2.55-5.07-.89.21-2.75c.1-1.18.19-2.22.29-3.56.08-1.01.14-1.97.17-2.84l.12-1.37h-.04l.04-.29-19.22-.66v.02h-.06v.1h-.06v.04h-.1c-.06.56-.06,1.08-.14,1.86-.15,1.95-.37,4.04-.54,5.66-.1.97-.19,1.74-.29,2.38-.25,2.78-.54,5.61-.83,8-.37,3.02-.72,5.3-.99,6.9-.25,1.59-.41,2.49-.48,2.98q-.08.48-.1.62c-.02.14-.04.37-.06.46l43.11,8.53.04-.23c.12-.19.17-.46.23-.83.25-1.59.75-4.74,1.33-9.09.6-4.35,1.3-9.92,1.86-16.12.56-6.21,1.01-13.07,1.22-18.21.1-2.47.15-4.5.19-6.19h.06v-.89c0-.37-.02-1.1-.02-1.6s.02-1.24.02-1.6v-1.2h-.06c-.04-1.68-.08-3.71-.17-6.19-.21-5.14-.66-12.01-1.22-18.21-.56-6.21-1.26-11.75-1.86-16.12-.6-4.35-1.1-7.5-1.35-9.11-.06-.35-.12-.62-.23-.81h-.04l-43.13,8.29c.02.12.06.33.06.46q.04.14.1.62c.08.48.23,1.37.48,2.98.25,1.59.62,3.89.99,6.9.29,2.38.58,5.22.83,8,.1.64.17,1.41.29,2.38.17,1.62.39,3.71.54,5.66.06.77.1,1.3.14,1.86h.1v.04h.06s0,.06.02.1h.04v.02l19.22-.66-.04-.29h.04l-.12-1.35c-.04-.87-.1-1.84-.17-2.84-.1-1.33-.19-2.38-.29-3.56l-.21-2.69s0-.04.02-.04l5.07-.89.31,2.61.33,3.13c.23,3.79.52,8.31.68,11.39.06.35.06.48.06.7l-29.79.52c-.04-1.55-.15-4.35-.56-8.85-.44-4.93-1.22-11.83-1.84-16.61-.62-4.78-1.04-7.4-1.33-8.97-.29-1.57-.43-2.09-.48-2.34-.02-.04-.04-.04-.04-.04-.06-.31-.12-.6-.17-.97-.06-.29-.12-.79-.43-2.18-.06-.17-.14-.54-.17-.75-.35-1.6-.91-3.94-2.03-8.04-1.26-4.64-3.17-11.31-4.66-16.05-1.35-4.31-2.32-6.94-2.88-8.39l17.07-6.73,2.01-.79,3.6-1.41,5.05-1.99c.1.25.14.37.27.73,1.02,2.9,2.49,7.19,3.73,10.79l.89,3.02.7,2.47-5.01,1.1-.04-.04-.85-2.63c-.37-1.12-.68-2.15-1.1-3.4-.31-.97-.64-1.88-.93-2.69l-.41-1.3-.04.02-.08-.25-18.02,6.75-.04.02v.02l-.06.02s.04.04.06.06h-.02s0,.04.02.04l-.06.02.02.04-.08.04c.17.54.35,1.02.58,1.76.6,1.88,1.22,3.89,1.68,5.45.27.93.48,1.68.64,2.3.83,2.67,1.66,5.39,2.3,7.69.81,2.94,1.37,5.18,1.74,6.75.37,1.57.58,2.46.68,2.94q.12.46.15.6c.06.14.1.35.14.46,0,.04.06.04.1.04,0,.02,0,.04.02.04.02.04.04.04.1.04l-.04-.06,42.92-8.6-.08-.33c.04-.23-.04-.5-.12-.87-.39-1.57-1.12-4.66-2.24-8.91s-2.61-9.65-4.45-15.6c-1.86-5.95-4.08-12.45-5.84-17.3-.85-2.32-1.57-4.21-2.18-5.78h.02l.06-.02-.1-.25-.35-.83v-.02c-.14-.33-.43-1.01-.62-1.47-.17-.44-.39-.97-.5-1.24v-.02l-.1-.25-.33-.83-.04.02c-.68-1.55-1.49-3.38-2.53-5.63-2.17-4.68-5.2-10.85-8.1-16.37-2.9-5.51-5.66-10.38-7.89-14.19-2.22-3.79-3.89-6.52-4.72-7.89-.17-.29-.33-.5-.48-.64l-36.71,23.95s.04.04.04.04v.02c-.1.06-.1.1-.08.14.06.1.17.29.23.41q.06.12.33.52c.25.41.73,1.18,1.59,2.55.85,1.37,2.05,3.34,3.54,5.99,1.18,2.09,2.53,4.6,3.83,7.08.33.56.72,1.24,1.18,2.09.77,1.43,1.78,3.29,2.67,5.03.35.68.58,1.16.83,1.66l.06-.04s.04.04.04.06l.06-.04.06-.04v.02l.04-.02,17.52-7.97-.14-.23.06-.02-.64-1.22c-.37-.79-.79-1.66-1.26-2.57-.6-1.18-1.08-2.13-1.62-3.17l-1.24-2.4s-.04-.04-.04-.04l4.35-2.63,1.3,2.3,1.51,2.76c1.68,3.42,3.65,7.48,4.99,10.27.15.33.21.44.31.66l-27.3,11.89c-.64-1.41-1.82-3.96-3.91-7.97-2.3-4.39-5.66-10.46-8.04-14.63-2.4-4.18-3.81-6.44-4.66-7.79-.87-1.35-1.18-1.76-1.33-1.97l-.06-.04c-.17-.27-.33-.5-.52-.81-.04-.04-.25-.37-.31-.46-.17-.29-.31-.52-.93-1.41-.1-.15-.33-.44-.44-.64-.95-1.35-2.34-3.29-4.95-6.65-2.94-3.81-7.27-9.24-10.44-13.03-2.9-3.46-4.81-5.53-5.88-6.65l21.42-20.72c.17.17.25.27.5.56,2.07,2.3,5.07,5.68,7.58,8.55l1.97,2.46,1.62,2.05-4.21,2.96s-.06-.04-.06-.04l-1.8-2.13c-.77-.91-1.45-1.72-2.32-2.73-.66-.77-1.3-1.49-1.89-2.13l-.89-1.04-.02.02v-.02l-.02.02-.06-.04-.12-.14-14.05,13.13.04.04-.12.1q.06.04.08.06c.37.43.73.81,1.22,1.41,1.28,1.49,2.59,3.11,3.63,4.39.6.75,1.1,1.37,1.49,1.88,1.8,2.15,3.6,4.35,5.07,6.24.66.83,1.16,1.51,1.68,2.2.21.27.48.64.68.89.7.93,1.28,1.72,1.74,2.38.95,1.31,1.47,2.05,1.76,2.46q.29.39.37.48s.04.04.06.04c.02.02.06.04.06.04.1.1.21.29.29.37h.04l-.02-.04,36.54-24.38-.21-.29c-.06-.23-.21-.46-.43-.75-.95-1.3-2.82-3.89-5.47-7.39-2.67-3.5-6.09-7.91-10.09-12.7-3.98-4.79-8.53-9.96-12.02-13.75-1.68-1.82-3.07-3.29-4.23-4.5l.04-.04-.19-.17-.62-.64h-.02c-.25-.25-.79-.77-1.14-1.12-.33-.33-.73-.73-.93-.95l-.17-.17-.66-.64-.06.04c-1.2-1.16-2.67-2.57-4.5-4.23-3.79-3.48-8.95-8.02-13.75-12.02-4.79-3.98-9.2-7.42-12.7-10.09-3.5-2.67-6.07-4.52-7.39-5.47-.23-.17-.43-.29-.62-.37l-24.86,36.19v.04s.06.04.08.04v.04c.1.06.27.21.37.29q.1.06.5.37c.39.29,1.14.81,2.46,1.76s3.17,2.3,5.57,4.2c1.89,1.49,4.1,3.29,6.24,5.07.52.39,1.14.87,1.88,1.49,1.28,1.02,2.9,2.36,4.39,3.63.58.5.97.85,1.39,1.22l.04-.04.04.04.06-.04.02.02.06-.04.02.02,13.13-14.05-.02-.02h.02l-.21-.17.02-.04-1.04-.87c-.64-.58-1.37-1.24-2.13-1.89-1.01-.87-1.82-1.55-2.73-2.32l-2.09-1.57s-.04-.04-.06-.04l2.96-4.21,2.07,1.64,2.46,1.97c2.86,2.51,6.24,5.51,8.55,7.58.27.23.37.33.52.46l-20.71,21.44c-1.12-1.06-3.19-2.98-6.65-5.88-3.79-3.17-9.22-7.5-13.03-10.44-3.81-2.94-5.97-4.49-7.29-5.39s-1.76-1.18-1.99-1.31c-.04-.04-.06-.04-.1-.04-.15-.1-.31-.21-.44-.31l-.12-.12c-.21-.15-.62-.48-1.97-1.35-1.33-.87-3.62-2.28-7.79-4.66-4.18-2.4-10.25-5.76-14.63-8.04-4-2.09-6.55-3.27-7.97-3.91l11.89-27.32c.19.06.31.14.62.29,2.78,1.33,6.84,3.33,10.27,4.99l2.76,1.51,2.18,1.24-2.76,4.33-2.34-1.2c-1.06-.54-1.99-1.02-3.17-1.62-.91-.46-1.78-.87-2.55-1.26l-1.22-.64-.04.04-.1-.04v.02l-.25-.14-.04.04-.06-.02-7.95,17.53s.06.04.1.04l-.06.1s.08.04.12.04v.02c.5.25.99.48,1.66.83,1.74.89,3.6,1.89,5.03,2.67.85.46,1.55.85,2.09,1.18,2.47,1.3,4.97,2.65,7.08,3.83,1.33.75,2.47,1.43,3.48,2.01.95.56,1.76,1.06,2.42,1.47,1.37.85,2.15,1.33,2.55,1.59.08.04.06.04.12.04.33.19.35.21.43.25.04.02.08.04.12.04.12.04.31.17.41.23.04.02.04,0,.1-.04l24.38-36.5-.25-.15c-.14-.19-.37-.35-.68-.54-1.37-.85-4.1-2.51-7.89-4.72-3.79-2.22-8.66-4.99-14.19-7.89-5.51-2.9-11.7-5.94-16.36-8.1-2.24-1.04-4.1-1.86-5.65-2.53l.02-.04-.83-.35c-.08-.04-.25-.1-.35-.15-.19-.06-.58-.23-.91-.37-.08-.04-.15-.04-.21-.06h-.02c-.46-.19-1.14-.48-1.47-.62l-.83-.35-.37-.15-.04.04c-1.57-.62-3.46-1.35-5.78-2.2-4.83-1.76-11.35-3.98-17.3-5.84-5.95-1.86-11.35-3.34-15.6-4.45-4.25-1.12-7.35-1.86-8.91-2.24-.31-.06-.56-.12-.77-.1l-8.66,41.86.43-3.25c-.68,3.5-.85,4.5-.77,4.52h.02c-.02.12.02.14.06.15.04.02.04.04.08.04.02.04.04.04.06.04l.06-.27c.12.04.27.06.37.1q.14.04.6.15c.46.1,1.37.31,2.94.68,1.57.37,3.81.93,6.75,1.74,2.32.64,5.05,1.47,7.71,2.3.62.15,1.37.39,2.3.66,1.57.46,3.58,1.06,5.45,1.66.73.23,1.22.41,1.76.58l.04-.04s.08.04.1.04l.06-.12c.06.02.06.04.1.04l6.75-18.02-.1-.04-.25-.06.02-.04h-.02v-.02l-1.3-.41c-.83-.29-1.72-.62-2.69-.93-1.26-.41-2.26-.73-3.4-1.1l-2.53-.83,1.1-5.03,2.46.7,3.02.89c3.6,1.24,7.87,2.71,10.79,3.73.31.1.43.15.62.21l-10.9,27.72c-1.45-.56-4.08-1.53-8.37-2.86-4.72-1.49-11.39-3.4-16.05-4.66-4.52-1.24-7.06-1.82-8.64-2.17-.04-.02-.14-.04-.17-.04s-.04,0-.04-.02c-2.82-.7-4.97-1.06-6.69-1.3-1.62-.27-3.87-.64-7.71-1.12-4.78-.62-11.66-1.39-16.59-1.84-4.5-.41-7.31-.5-8.85-.56l.52-29.79c.17.02.29.02.6.04,3.07.15,7.6.44,11.39.68l3.13.33,2.61.31-.89,5.08-2.63-.21c-1.18-.1-2.24-.19-3.56-.29-1.01-.06-1.97-.14-2.84-.17l-1.37-.12v.04l-.08-.02v.04l-.08-.02-.19-.04h-.02v.04l-.08-.02-.66,19.22c.06,0,.1.02.14.02v.1c.56.04,1.08.04,1.86.14,1.95.15,4.06.37,5.68.54.97.1,1.74.19,2.38.29,2.78.25,5.61.52,7.98.81,3.02.37,5.32.73,6.9.99s2.49.41,2.98.48q.48.06.62.06c.14.04.35.04.46.04.04,0,.06-.04.06-.04.04,0,.12.02.15.04,0,0,.02-.02.04-.02l8.47-43.03.04-.04-.29-.04c-.19-.12-.46-.17-.85-.23-1.04-.17-3.67-.54-5.95-.89-4.29-.35-9.88-1.02-15.52-1.57-7.62-.72-15.33-1.12-21.85-1.35-3.27-.12-6.23-.19-9.12-.19l-.23-.1Z"/>
</svg>