<svg width="40" height="40" viewBox="0 0 1080 1080" fill="none" xmlns="http://www.w3.org/2000/svg">
  <rect width="1080" height="1080" fill="#1B3E37" />
  <g>
    <g>
      <g>
        <g>
          <path d="M685.26,491.81c-1.9,0-3.14,0-4.39,0c-40.09,0-80.18,0.01-120.26,0c-46.81-0.01-93.63-0.01-140.44-0.07c-2.23,0-3.15,0.43-3.29,2.94c-1.84,34.15-3.42,68.31-5.84,102.42c-3.75,52.98-14.19,104.7-31.33,155c-1.89,5.54-4.51,10.82-6.85,16.2c-0.95,2.18-2.59,3-5.09,2.99c-25.22-0.1-50.44-0.08-75.66-0.11c-4.74-0.01-4.9-0.31-2.8-4.65c20.22-41.83,34.29-85.78,45.06-130.86c9.9-41.43,16.41-83.41,19.78-125.87c0.46-5.83,0.91-11.66,1.4-17.95c-1.65,0-2.89,0-4.13,0c-17.19-0.05-34.39-0.15-51.58-0.09c-3.08,0.01-4.27-0.77-4.25-4.11c0.13-21.37,0.02-42.74,0.04-64.11c0-4.16,0.09-4.22,4.35-4.24c17.64-0.07,35.28-0.1,52.92-0.15c1.27,0,2.53,0,4.03,0c0-23.52,0-46.78,0-70.61c-1.29,0-2.63,0-3.96,0c-17.64-0.02-35.28-0.02-52.92-0.06c-4.38-0.01-4.41-0.04-4.43-4.54c-0.04-8.66-0.22-17.32,0.03-25.97c0.09-2.99-1.05-4.28-3.5-5.54c-18.44-9.42-33.7-22.45-44.69-40.17c-8.77-14.13-13.57-29.64-15.75-46.03c-0.43-3.19,0.44-3.87,3.35-2.65c28.95,12.12,59.57,17.32,90.38,21.56c57.97,7.97,116.34,8.26,174.69,8.36c47.99,0.09,95.98-0.07,143.97-0.29c32.82-0.16,65.62-1.25,98.31-4.3c36.2-3.37,72.17-8.19,107.04-19.03c5.6-1.74,11.04-3.98,16.54-6.05c3.61-1.36,4.31-0.96,3.8,2.86c-4.35,32.36-18.99,58.63-46.2,77.29c-4.83,3.31-10,6.16-15.15,8.97c-1.78,0.97-2.39,1.98-2.38,3.94c0.06,9.19-0.12,18.39-0.01,27.58c0.04,3.21-1.09,4.14-4.31,4.11c-17.74-0.15-35.49-0.06-53.24-0.05c-1.16,0-2.32,0-3.76,0c0,23.57,0,46.89,0,70.6c1.3,0,2.55,0,3.8,0c17.42,0.02,34.85,0.03,52.27,0.08c5.05,0.02,5.13,0.08,5.13,5.12c-0.01,20.95-0.05,41.89-0.13,62.84c-0.02,4.36-0.09,4.48-4.35,4.5c-17.3,0.09-34.6,0.11-51.9,0.15c-1.04,0-2.09,0-3.52,0c0.46,6.58,0.6,12.86,1.37,19.06c3.25,26.06,5.94,52.23,10.23,78.13c7.81,47.21,20.34,93.26,37.44,137.98c5.14,13.44,11.42,26.45,17.25,39.62c1.86,4.21,1.63,4.72-2.98,4.72c-24.79-0.02-49.59-0.12-74.38,0.02c-3.57,0.02-5.78-1.23-6.92-4.36c-4.06-11.12-8.53-22.12-11.92-33.45c-8.55-28.56-16.01-57.43-19.89-87.05c-2.11-16.09-4.06-32.24-5.21-48.42c-2.24-31.53-3.89-63.11-5.72-94.67C685.07,499.67,685.26,495.94,685.26,491.81z M683.1,419.03c0-23.42,0-46.82,0-70.31c-33.31,0-66.49,0-99.77,0c0,23.54,0,46.87,0,70.31C616.59,419.03,649.61,419.03,683.1,419.03z M418.4,348.63c0,23.58,0,46.91,0,70.22c33.45,0,66.62,0,99.7,0c0-23.54,0-46.79,0-70.22C484.79,348.63,451.72,348.63,418.4,348.63z" fill="#DBBC6C" />
        </g>
      </g>
      <g>
        <g>
          <path d="M583.81,695.19c-23,0-45.89,0-68.9,0c0.49-2.69,0.96-5.3,1.44-7.91c3.95-21.74,7.91-43.48,11.86-65.21c0.74-4.09,1.49-8.19,2.26-12.27c0.13-0.71,0.01-1.09-0.68-1.48c-14.12-8.1-21.6-20.3-21.84-36.59c-0.3-19.92,14.64-37.51,34.27-40.8c22.75-3.81,43.77,10.89,48,33.56c3.24,17.38-5.48,35.49-21.11,43.76c-0.75,0.4-0.96,0.78-0.81,1.62c3.46,18.88,6.9,37.76,10.34,56.64c1.69,9.29,3.39,18.57,5.08,27.86C583.77,694.6,583.78,694.84,583.81,695.19z" fill="#DBBC6C" />
        </g>
      </g>
    </g>
  </g>
</svg>
